<?xml version="1.0" encoding="UTF-8"?>
<svg version="1.1" xmlns="http://www.w3.org/2000/svg" width="3330" height="1998">
<path d="M0 0 C1098.9 0 2197.8 0 3330 0 C3330 659.34 3330 1318.68 3330 1998 C2231.1 1998 1132.2 1998 0 1998 C0 1338.66 0 679.32 0 0 Z " fill="#000000" transform="translate(0,0)"/>
<path d="M0 0 C1098.9 0 2197.8 0 3330 0 C3330 219.78 3330 439.56 3330 666 C2231.1 666 1132.2 666 0 666 C0 446.22 0 226.44 0 0 Z " fill="#00267F" transform="translate(0,0)"/>
<path d="M0 0 C1098.9 0 2197.8 0 3330 0 C3330 219.78 3330 439.56 3330 666 C2986.14 666 2642.28 666 2288 666 C2287.34 657.09 2286.68 648.18 2286 639 C2285.40335521 633.29684876 2284.78292353 627.62277004 2284.0625 621.9375 C2283.90587891 620.63619141 2283.74925781 619.33488281 2283.58789062 617.99414062 C2281.5116077 601.19362024 2278.47636651 584.61239051 2274.9375 568.0625 C2274.74436218 567.15880676 2274.55122437 566.25511353 2274.35223389 565.32403564 C2263.90549236 516.80288535 2247.4531995 470.35324618 2225.42773438 425.890625 C2224.03460466 423.07006141 2222.6636876 420.23964253 2221.296875 417.40625 C2200.85598638 375.35834417 2174.00768971 335.62280722 2143.6328125 300.10546875 C2141.11661783 297.15579651 2138.68107031 294.14529582 2136.25 291.125 C2133.25800249 287.44622726 2130.16837483 284.03576847 2126.7512207 280.75219727 C2125.13921624 279.13929387 2123.68572354 277.48163165 2122.22265625 275.734375 C2116.82021304 269.51971125 2110.92277777 263.77406608 2105.09399414 257.96362305 C2103.0673702 255.94235732 2101.04614453 253.91580426 2099.02539062 251.88867188 C2092.85255033 245.7126942 2086.67893676 239.6334642 2080 234 C2078.4551874 232.5867645 2076.91304675 231.17059591 2075.375 229.75 C2070.93027417 225.73890596 2066.31232795 222.02458933 2061.58203125 218.36157227 C2058.43197131 215.91968811 2055.31453443 213.45108906 2052.25 210.90234375 C2041.91131751 202.30913603 2031.11897334 194.55089546 2020 187 C2018.84298584 186.21278564 2018.84298584 186.21278564 2017.66259766 185.40966797 C2012.47398373 181.88989994 2007.24674936 178.43234485 2002 175 C2001.28650391 174.52916992 2000.57300781 174.05833984 1999.83789062 173.57324219 C1958.80008969 146.57858413 1913.96364059 126.88805757 1868 110 C1867.0297287 109.64174133 1867.0297287 109.64174133 1866.03985596 109.27624512 C1858.51688711 106.50474028 1851.00772779 104.02171088 1843.25 102 C1841.52585817 101.54235742 1839.80190722 101.08399526 1838.078125 100.625 C1837.14234619 100.37806396 1836.20656738 100.13112793 1835.24243164 99.87670898 C1832.82353248 99.22267187 1830.41395585 98.55051937 1828.00561523 97.85961914 C1816.61133868 94.60364277 1805.15288285 91.89856257 1793.5625 89.4375 C1792.6565509 89.24334503 1791.75060181 89.04919006 1790.81719971 88.84915161 C1775.61831475 85.60179656 1760.43027869 82.91059366 1745 81 C1746.21901001 81.19686401 1746.21901001 81.19686401 1747.46264648 81.39770508 C1769.1882942 85.09686809 1790.99468858 89.27888777 1812 96 C1813.38864067 96.42541051 1814.7779566 96.84862363 1816.16796875 97.26953125 C1819.477255 98.27660124 1822.77281476 99.3216167 1826.06494141 100.38330078 C1827.96891492 100.99009325 1829.88093522 101.57144788 1831.79296875 102.15234375 C1865.40376773 112.58838581 1897.71619177 128.26452037 1928 146 C1928.86463867 146.49999512 1929.72927734 146.99999023 1930.62011719 147.51513672 C1947.8880678 157.50630311 1964.21140884 168.81155463 1980 181 C1980.53753906 181.41282227 1981.07507812 181.82564453 1981.62890625 182.25097656 C1994.38927169 192.06831922 2006.57327542 202.49435593 2018.3515625 213.46923828 C2020.16461483 215.1528636 2021.98854633 216.82428761 2023.8125 218.49609375 C2032.44276157 226.44735911 2040.63140308 234.68252855 2048.51904297 243.37060547 C2049.79723578 244.77691257 2051.08700579 246.17268112 2052.37890625 247.56640625 C2064.10468441 260.32871729 2074.79951141 274.00214925 2085 288 C2085.47614746 288.64839844 2085.95229492 289.29679687 2086.44287109 289.96484375 C2127.59386051 346.18736565 2157.09612757 411.96099858 2172 480 C2172.26506348 481.20720703 2172.53012695 482.41441406 2172.80322266 483.65820312 C2177.1780872 503.98457801 2179.95303648 524.32822719 2182 545 C2182.17789063 546.73032471 2182.17789063 546.73032471 2182.359375 548.49560547 C2185.22873091 577.19343449 2184.58063018 606.01751147 2182.625 634.75 C2182.56196686 635.68874969 2182.49893372 636.62749939 2182.43399048 637.59469604 C2182.24897636 640.28784386 2182.05297225 642.97990771 2181.8515625 645.671875 C2181.79623856 646.45371658 2181.74091461 647.23555817 2181.68391418 648.04109192 C2181.19643406 654.19249015 2180.12009988 659.83945064 2179 666 C1840.75 666 1502.5 666 1154 666 C1148.11489279 618.91914229 1146.19029399 572.06479666 1153 525 C1153.25677872 523.02006818 1153.5097971 521.03964239 1153.7578125 519.05859375 C1156.40392069 498.46390161 1160.55091947 478.03112702 1166 458 C1166.23912109 457.10732422 1166.47824219 456.21464844 1166.72460938 455.29492188 C1179.34836815 408.59674996 1199.27781745 362.97096895 1225 322 C1225.47099121 321.24525391 1225.94198242 320.49050781 1226.42724609 319.71289062 C1244.7582346 290.47044688 1266.00952457 261.39441143 1290.76171875 237.234375 C1292.81726509 235.182416 1294.73383346 233.07780347 1296.625 230.875 C1301.86602436 224.77479132 1307.58336565 219.27472714 1313.6796875 214.0390625 C1316.04009318 211.9647666 1318.33887441 209.83590877 1320.63476562 207.69091797 C1326.88793041 201.85450951 1333.28369197 196.3041181 1340 191 C1340.96848877 190.23067139 1340.96848877 190.23067139 1341.95654297 189.44580078 C1352.7143428 180.91392245 1363.68356556 172.77450141 1375 165 C1375.91265625 164.36698975 1375.91265625 164.36698975 1376.84375 163.72119141 C1444.87102924 116.63542384 1522.61328102 90.30040676 1604 79 C1561.85269591 82.91580298 1519.29090236 90.79057874 1479 104 C1478.37750366 104.20240295 1477.75500732 104.40480591 1477.11364746 104.61334229 C1406.89358107 127.45486687 1340.90971633 161.19077871 1282.64746094 206.71582031 C1280.97055655 208.02295088 1279.28656296 209.32051572 1277.6015625 210.6171875 C1265.02050711 220.34310634 1253.12494518 230.82730087 1241.47265625 241.640625 C1239.98995407 243.00927316 1238.49655628 244.36527532 1237 245.71875 C1230.37608311 251.73146951 1223.96144259 257.93490748 1217.625 264.25 C1216.87589355 264.99451416 1216.12678711 265.73902832 1215.35498047 266.50610352 C1211.26265385 270.60983064 1207.34162824 274.80501681 1203.55908203 279.19580078 C1201.46685936 281.61696043 1199.29621284 283.96218038 1197.125 286.3125 C1193.08597847 290.74631311 1189.22493122 295.28054584 1185.4609375 299.94921875 C1183.66719764 302.17288674 1181.86127617 304.38198478 1180.0390625 306.58203125 C1157.88099923 333.41176992 1137.94382578 362.60078315 1121 393 C1120.44441406 393.99451172 1119.88882812 394.98902344 1119.31640625 396.01367188 C1097.91887646 434.54352228 1079.1564679 475.52740229 1067 518 C1066.54860642 519.53267859 1066.09674126 521.06521834 1065.64453125 522.59765625 C1051.93975182 569.38463602 1043.56211835 617.31975134 1041 666 C697.47 666 353.94 666 0 666 C0 446.22 0 226.44 0 0 Z " fill="#FECB00" transform="translate(0,666)"/>
<path d="M0 0 C1.13429443 -0.00328308 2.26858887 -0.00656616 3.43725586 -0.00994873 C19.18390634 -0.02470739 34.33011406 0.41382241 49.76416016 3.78442383 C52.43441828 4.35167666 55.11246925 4.80317394 57.8046875 5.25390625 C83.86823604 9.96429695 109.96096107 24.42807626 125.328125 46.265625 C142.55875804 72.96652964 145.40814198 102.66106304 145.39526367 133.73046875 C145.39826612 135.20586225 145.40167109 136.68125499 145.40544128 138.15664673 C145.41417113 142.11532136 145.41661457 146.0739743 145.41725707 150.03265762 C145.41797342 152.51618925 145.42011857 154.99971556 145.42275429 157.48324585 C145.43196837 166.17600854 145.43609378 174.86875602 145.43530273 183.56152344 C145.4347017 191.6203101 145.44526875 199.67902989 145.4610464 207.73779964 C145.4741799 214.69794239 145.47948427 221.6580634 145.47884732 228.61821842 C145.47859422 232.75725229 145.48134122 236.89622647 145.49202538 241.0352478 C145.50180605 244.92929097 145.50171836 248.82321851 145.49450874 252.71726608 C145.49347545 254.13325548 145.49574954 255.54925248 145.5018692 256.96522903 C145.54339569 267.25224882 145.53920903 278.44487291 142.25 288.3125 C142.0107628 292.76673479 142.06479658 297.22754398 142.0625 301.6875 C142.05025391 302.90050781 142.03800781 304.11351562 142.02539062 305.36328125 C142.00681851 316.96466546 142.87043728 327.85111081 147.875 338.4375 C148.40287109 339.58387939 148.40287109 339.58387939 148.94140625 340.75341797 C156.78206826 357.24740848 169.39546789 370.24225353 186.76171875 376.53515625 C201.70255634 381.20270206 219.36342489 381.04736617 234.25 376.3125 C234.91555908 376.11841553 235.58111816 375.92433105 236.2668457 375.72436523 C242.29647427 373.87724449 247.51006612 371.18222744 252.9375 368 C253.83162598 367.48236084 254.72575195 366.96472168 255.64697266 366.43139648 C267.41589725 359.55306845 279.26183888 352.47494223 290.2578125 344.40234375 C293.25 342.3125 293.25 342.3125 295.25 342.3125 C302.19751644 389.95657216 301.99416403 439.34982601 285.94042969 485.32519531 C285.15990626 487.57182214 284.4124045 489.82839442 283.6640625 492.0859375 C279.838423 503.4814594 275.38430073 514.44747819 270.25 525.3125 C269.88567871 526.09560547 269.52135742 526.87871094 269.14599609 527.68554688 C259.71322837 547.84235228 247.79659711 566.15307404 233.78515625 583.41894531 C232.40558863 585.12058756 231.04322525 586.83404259 229.6875 588.5546875 C225.53126453 593.76441321 221.1616488 598.55112451 216.3671875 603.1796875 C214.33054184 605.23136375 212.55536015 607.37037972 210.75 609.625 C207.12355193 613.82535843 203.37752329 615.44295253 198.25 617.3125 C197.44280518 617.61776611 196.63561035 617.92303223 195.80395508 618.23754883 C189.01676293 620.77134031 182.17480179 622.84556419 175.1875 624.75 C172.9700255 625.36058054 170.75257771 625.97125811 168.53515625 626.58203125 C167.46023926 626.87674316 166.38532227 627.17145508 165.27783203 627.47509766 C162.65779884 628.19971577 160.04435821 628.94204684 157.43359375 629.69921875 C134.39294737 636.35809698 110.84206343 640.27867617 87.18560791 644.00653076 C85.48958321 644.27462813 83.79428861 644.54733582 82.09912109 644.82080078 C75.83201042 645.82150774 69.55918695 646.62712555 63.25 647.3125 C61.42106201 647.51552734 61.42106201 647.51552734 59.55517578 647.72265625 C15.32053788 652.49656231 -29.48449579 651.77671475 -73.63250732 646.56243896 C-75.5670585 646.33409356 -77.50248442 646.11319057 -79.43798828 645.89306641 C-85.02785327 645.25127641 -90.59819022 644.53084501 -96.16259766 643.69677734 C-98.94302083 643.28383282 -101.72700933 642.90243457 -104.51171875 642.51953125 C-122.22372555 639.98373107 -139.43442468 635.72747823 -156.75 631.3125 C-157.88937012 631.02552246 -159.02874023 630.73854492 -160.20263672 630.44287109 C-172.17461119 627.42658392 -184.03943619 624.23215152 -195.75 620.3125 C-196.43707031 620.09658203 -197.12414063 619.88066406 -197.83203125 619.65820312 C-207.4117648 616.63717198 -214.23666341 613.26260202 -220.75 605.3125 C-221.85346517 604.08270354 -222.95761793 602.85352364 -224.0625 601.625 C-224.90361328 600.64080078 -224.90361328 600.64080078 -225.76171875 599.63671875 C-227.28781257 597.85277804 -228.83641708 596.08807425 -230.39453125 594.33203125 C-267.80498749 551.9401894 -290.95394543 499.74080879 -300.75 444.3125 C-300.9370752 443.27722168 -301.12415039 442.24194336 -301.31689453 441.17529297 C-303.97964302 425.38252431 -303.98321059 409.34897809 -304 393.375 C-304.00200409 392.43960388 -304.00400818 391.50420776 -304.006073 390.54046631 C-304.01492113 373.61019411 -303.16084993 356.94567979 -299.75 340.3125 C-295.76362026 342.12996784 -292.20652698 344.59262401 -288.5625 347 C-229.83968587 386.27053487 -229.83968587 386.27053487 -162.75 405.3125 C-161.92209961 405.37083008 -161.09419922 405.42916016 -160.24121094 405.48925781 C-146.18976125 406.3827603 -135.83259178 405.70033281 -124.59375 396.55859375 C-97.22203899 368.76670296 -98.30105915 314.67077526 -95.89761353 278.48797607 C-95.76037796 276.46544674 -95.60962236 274.44384725 -95.45776367 272.42236328 C-94.40626249 257.44397571 -94.49169472 242.40924185 -94.45483398 227.40136719 C-94.44598092 224.18242437 -94.42508359 220.96391411 -94.39331055 217.74511719 C-94.094537 186.74723564 -94.86243366 156.84994176 -117.75 133.3125 C-135.35243607 116.44730882 -157.047154 110.73061849 -180.859375 111.03515625 C-199.72383139 111.64398023 -215.8307685 119.79203433 -228.7421875 133.41796875 C-230.63636157 135.46042021 -232.49027812 137.52945546 -234.33984375 139.61328125 C-236.4089236 141.93051655 -238.5285551 144.14259675 -240.75 146.3125 C-233.10388589 120.65466346 -210.89012554 97.24218487 -192.75 78.3125 C-191.97011719 77.49136719 -191.19023438 76.67023438 -190.38671875 75.82421875 C-185.7968037 71.10386207 -180.95037278 66.85514504 -175.8046875 62.75 C-173.6397126 61.0224497 -171.5047117 59.27849132 -169.3828125 57.5 C-159.73305698 49.48338151 -149.51977447 42.72990741 -138.75 36.3125 C-138.02474121 35.87695801 -137.29948242 35.44141602 -136.55224609 34.99267578 C-94.42225482 9.92287315 -48.52117361 0.11482538 0 0 Z " fill="#B12133" transform="translate(1667.75,1341.6875)"/>
<path d="M0 0 C0 0.33 0 0.66 0 1 C-1.3468689 1.18006592 -1.3468689 1.18006592 -2.72094727 1.36376953 C-88.84524195 12.98844419 -173.64717642 40.40334608 -244 93 C-245.74947603 94.25073323 -247.49946817 95.5007449 -249.25 96.75 C-262.28894158 106.27476439 -274.89381639 116.31667053 -287 127 C-287.83273437 127.7321875 -288.66546875 128.464375 -289.5234375 129.21875 C-292.03702381 131.4567604 -294.52171109 133.72293968 -297 136 C-297.57975586 136.52932129 -298.15951172 137.05864258 -298.75683594 137.60400391 C-308.06863797 146.12366433 -316.91827412 154.92707214 -325.41113281 164.26269531 C-326.90350968 165.89449521 -328.41218177 167.50877605 -329.9296875 169.1171875 C-335.72202922 175.28257468 -341.0350149 181.68998944 -346.1953125 188.38671875 C-348.05147307 190.79427201 -349.93976609 193.16865132 -351.8671875 195.51953125 C-384.85560207 235.8038312 -410.16485662 282.58670553 -429 331 C-429.60618164 332.54204102 -429.60618164 332.54204102 -430.22460938 334.11523438 C-443.35880633 367.84174011 -452.62904731 404.09017058 -457 440 C-457.25265737 442.02953051 -457.50532646 444.05905957 -457.75820923 446.08856201 C-458.56406563 452.57162133 -459.35700412 459.05624441 -460.1328125 465.54296875 C-460.27605957 466.73946045 -460.41930664 467.93595215 -460.56689453 469.16870117 C-460.70981934 470.43302979 -460.85274414 471.6973584 -461 473 C-461.08923233 473.75004807 -461.17846466 474.50009613 -461.270401 475.27287292 C-461.99827728 481.80644747 -462.16036246 488.26930895 -462.16796875 494.83984375 C-462.1721582 495.95181625 -462.17634766 497.06378876 -462.18066406 498.2094574 C-462.19038968 501.78550814 -462.19046324 505.3614383 -462.1875 508.9375 C-462.18722809 510.15552307 -462.18695618 511.37354614 -462.18667603 512.628479 C-462.16892915 529.84237725 -461.92178764 546.87778727 -460 564 C-459.90879883 564.90830566 -459.81759766 565.81661133 -459.72363281 566.75244141 C-450.40014033 659.44758508 -415.85205682 748.73509146 -356 829 C-355.14444843 830.11191544 -354.28898428 831.22389816 -353.43359375 832.3359375 C-341.48932054 847.77997079 -328.66511509 862.55785001 -314.7265625 876.23828125 C-313.05122518 877.94773177 -311.52329025 879.71744524 -310 881.5625 C-307.27313735 884.82143341 -304.22647202 887.51172187 -300.9921875 890.2578125 C-299.12494265 891.89073643 -297.40737604 893.58929139 -295.6875 895.375 C-292.07226519 899.04723175 -288.12860749 902.22900492 -284.1171875 905.45703125 C-279.92094788 908.85132891 -275.85047228 912.39325489 -271.77124023 915.92651367 C-271.20864502 916.41224854 -270.6460498 916.8979834 -270.06640625 917.3984375 C-269.57084229 917.82817871 -269.07527832 918.25791992 -268.56469727 918.70068359 C-266.75746117 920.20140297 -264.88842129 921.60337899 -263 923 C-263.21934204 924.32837891 -263.21934204 924.32837891 -263.44311523 925.68359375 C-263.99545715 929.05241932 -264.54059396 932.42226322 -265.08129883 935.79296875 C-265.31421536 937.23612533 -265.54978334 938.67885713 -265.78833008 940.12109375 C-268.50350917 956.56141706 -269.18677197 972.8393753 -269.18530273 989.47998047 C-269.18748644 992.23290557 -269.2057206 994.98542656 -269.22460938 997.73828125 C-269.27720652 1014.38049884 -267.95928008 1030.86019916 -264.88671875 1047.23046875 C-264.42877379 1049.68121789 -263.97730093 1052.13150575 -263.55322266 1054.58837891 C-254.80045741 1104.97346799 -231.35299715 1152.91869595 -200 1193 C-200.66 1193.33 -201.32 1193.66 -202 1194 C-204.16943359 1193.25 -204.16943359 1193.25 -206.8984375 1192 C-207.92050293 1191.53311768 -208.94256836 1191.06623535 -209.99560547 1190.58520508 C-211.11080566 1190.0620874 -212.22600586 1189.53896973 -213.375 1189 C-214.53531738 1188.45819092 -215.69563477 1187.91638184 -216.89111328 1187.3581543 C-271.13172184 1161.81366854 -321.2365528 1127.57179463 -365.5234375 1087.23046875 C-366.91094709 1085.98083472 -368.30455359 1084.73762651 -369.71925354 1083.51885986 C-374.59125923 1079.31854354 -379.2133467 1074.93342169 -383.75390625 1070.37890625 C-384.45845444 1069.67531479 -385.16300262 1068.97172333 -385.88890076 1068.24681091 C-387.36653367 1066.76985352 -388.84292457 1065.29165258 -390.31811523 1063.81225586 C-392.55666481 1061.56834915 -394.80050473 1059.32983296 -397.04492188 1057.09179688 C-398.48990404 1055.64615382 -399.93457592 1054.20020055 -401.37890625 1052.75390625 C-402.03951553 1052.0953212 -402.70012482 1051.43673615 -403.38075256 1050.75819397 C-407.78461988 1046.33244278 -411.93477146 1041.73733927 -416 1037 C-416.97325746 1035.88220187 -417.94709761 1034.76491042 -418.921875 1033.6484375 C-425.34147265 1026.23690341 -431.51018951 1018.67338451 -437.5078125 1010.91748047 C-439.10676178 1008.86280971 -440.72389582 1006.8233803 -442.34375 1004.78515625 C-450.73898419 994.18077314 -458.53315519 983.27536158 -466 972 C-466.834104 970.74171387 -466.834104 970.74171387 -467.68505859 969.45800781 C-497.00850583 925.08157719 -519.86621998 878.31041463 -537.82373047 828.26611328 C-538.80726995 825.53514791 -539.80571969 822.81083333 -540.81640625 820.08984375 C-544.54763852 809.96221329 -547.45461089 799.66574086 -550.15966797 789.22070312 C-551.05680747 785.78227654 -551.98418165 782.35264089 -552.91015625 778.921875 C-558.48745625 757.85538409 -562.27862912 736.59493738 -565.67034912 715.07763672 C-565.96127674 713.24405476 -566.26142659 711.41194117 -566.56298828 709.58007812 C-571.36729099 679.84318201 -572.3838701 649.93565108 -572.3125 619.875 C-572.31124367 619.15013145 -572.30998734 618.42526291 -572.30869293 617.67842865 C-572.26683318 595.93613884 -571.89124472 574.35121988 -569.25 552.75 C-569.16385437 552.03376465 -569.07770874 551.3175293 -568.98895264 550.57958984 C-566.16837862 527.23602474 -562.45870953 504.14257322 -556.81347656 481.29931641 C-555.95090764 477.80089012 -555.11170284 474.29729251 -554.2734375 470.79296875 C-551.2437005 458.2590112 -547.91662132 445.98113321 -543.62597656 433.82128906 C-542.73090644 431.21706787 -541.9614023 428.57992317 -541.1875 425.9375 C-521.58008544 362.01414034 -488.18730671 301.14263734 -448 248 C-447.20851563 246.94554687 -446.41703125 245.89109375 -445.6015625 244.8046875 C-436.53128875 232.85775735 -427.06411679 221.17186558 -416.9296875 210.109375 C-415.14829604 208.16210498 -413.4124023 206.18475529 -411.6875 204.1875 C-403.52058976 194.8538883 -395.00503415 185.90806249 -386.25 177.125 C-385.45819336 176.32860107 -384.66638672 175.53220215 -383.85058594 174.71166992 C-379.642309 170.51439329 -375.35421043 166.48068416 -370.84912109 162.60400391 C-368.05956991 160.18423215 -365.38066963 157.6507759 -362.6875 155.125 C-356.98515128 149.82625534 -351.07285619 144.87101964 -345 140 C-343.80726658 139.0172335 -342.61594599 138.03275069 -341.42578125 137.046875 C-316.04425892 116.07855078 -288.56893627 97.36112035 -260 81 C-258.93724854 80.38801758 -258.93724854 80.38801758 -257.85302734 79.76367188 C-252.61268711 76.75954768 -247.3189997 73.86214278 -242 71 C-241.04335449 70.48211914 -240.08670898 69.96423828 -239.10107422 69.43066406 C-195.87471933 46.14186207 -148.91285275 27.0972245 -101 16 C-99.11087891 15.55793213 -99.11087891 15.55793213 -97.18359375 15.10693359 C-72.42535537 9.33739758 -47.62226162 4.32757499 -22.375 1.1875 C-20.89157104 1.00127075 -20.89157104 1.00127075 -19.37817383 0.8112793 C-12.89483078 0.0599811 -6.52393993 -0.13575003 0 0 Z " fill="#B12233" transform="translate(1612,744)"/>
<path d="M0 0 C6.40232355 -0.12225542 12.47854374 0.28037709 18.8125 1.1875 C19.75552979 1.3205957 20.69855957 1.45369141 21.67016602 1.59082031 C53.27318213 6.17475743 84.3831287 12.93392361 115 22 C116.04873291 22.30405762 116.04873291 22.30405762 117.11865234 22.61425781 C172.31971638 38.64634399 225.92518406 63.60103898 274 95 C274.75619629 95.4935498 275.51239258 95.98709961 276.29150391 96.49560547 C292.35394651 107.01785789 308.05138773 117.94034215 323 130 C323.6379248 130.51175781 324.27584961 131.02351562 324.93310547 131.55078125 C345.57610166 148.11757927 364.82593821 165.74748192 383.5625 184.4375 C384.17522766 185.04754883 384.78795532 185.65759766 385.41925049 186.28613281 C391.83539054 192.68098822 398.14074949 199.08366278 404 206 C405.45445517 207.60768373 406.91220895 209.21239715 408.375 210.8125 C413.10513275 216.06198855 417.58548951 221.48368606 422 227 C422.40943848 227.50982422 422.81887695 228.01964844 423.24072266 228.54492188 C443.79522637 254.19292422 462.74769798 281.41189587 479 310 C479.46212891 310.81146484 479.92425781 311.62292969 480.40039062 312.45898438 C521.26771717 384.7455141 549.35370586 465.00524382 557.68261719 547.89550781 C557.9548868 550.55872354 558.26355159 553.2117105 558.6015625 555.8671875 C567.25230828 625.4691933 561.72107336 696.84319934 546 765 C545.77521973 765.99902344 545.55043945 766.99804688 545.31884766 768.02734375 C541.31092361 785.69587496 535.80052939 802.85566592 530 820 C529.77959045 820.65391724 529.55918091 821.30783447 529.33209229 821.98156738 C510.50562032 877.77559956 484.07699181 930.92279042 450 979 C449.18619873 980.15169678 449.18619873 980.15169678 448.35595703 981.32666016 C441.18554127 991.44601194 433.78137534 1001.34278467 426 1011 C425.25363281 1011.92941406 424.50726562 1012.85882812 423.73828125 1013.81640625 C414.68096659 1024.98763637 405.29373845 1035.86200076 395.49658203 1046.39013672 C393.86715574 1048.14289968 392.24415387 1049.90149754 390.62109375 1051.66015625 C372.13402551 1071.64100003 372.13402551 1071.64100003 362.11328125 1080.16796875 C359.94336605 1082.04909672 357.83495392 1083.98958603 355.73046875 1085.94335938 C350.55230254 1090.74791106 345.2634427 1095.33836165 339.7578125 1099.76953125 C336.9289335 1102.0574773 334.15252458 1104.40007798 331.375 1106.75 C313.83125621 1121.37355934 295.13421515 1134.55106442 276 1147 C275.29713867 1147.45842285 274.59427734 1147.9168457 273.87011719 1148.38916016 C222.66098211 1181.64696107 222.66098211 1181.64696107 196 1191 C195.34 1190.67 194.68 1190.34 194 1190 C194.50430542 1189.32348389 194.50430542 1189.32348389 195.01879883 1188.63330078 C203.32411856 1177.44205515 211.0354603 1166.07333195 218 1154 C218.48855469 1153.15453613 218.97710938 1152.30907227 219.48046875 1151.43798828 C235.52185483 1123.43257358 247.10633284 1093.34724328 254.54150391 1061.93457031 C254.96255164 1060.15800894 255.40784582 1058.38723982 255.85546875 1056.6171875 C261.13694373 1034.36528782 262.22722583 1010.98621787 262.25 988.1875 C262.25133942 987.38551178 262.25267883 986.58352356 262.25405884 985.75723267 C262.24729457 966.93180601 260.43674995 948.50766 256.55078125 930.07421875 C256.03583424 927.20001097 255.71711557 924.89963589 256 922 C257.40185547 920.29003906 257.40185547 920.29003906 259.3671875 918.765625 C260.08334229 918.19593994 260.79949707 917.62625488 261.53735352 917.03930664 C262.30877686 916.44883545 263.0802002 915.85836426 263.875 915.25 C265.44537605 914.00562771 267.0143925 912.75953768 268.58203125 911.51171875 C269.34467285 910.91020996 270.10731445 910.30870117 270.89306641 909.68896484 C274.35597809 906.91301779 277.60879479 903.93739989 280.87890625 900.9375 C282.88654129 899.10363816 284.93392197 897.32991725 287 895.5625 C291.05684485 892.03729812 294.79367008 888.22285499 298.56640625 884.3984375 C300.6276938 882.36692778 302.72186556 880.48268941 304.9375 878.625 C309.94745138 874.33219892 314.27147958 869.39695867 318.66259766 864.49023438 C319.89569469 863.11622482 321.14067861 861.75290784 322.38671875 860.390625 C326.92390992 855.41792682 331.26993756 850.3260148 335.5 845.08984375 C337.32003572 842.84039335 339.15218882 840.60526208 341 838.37890625 C378.8462003 792.60725279 407.60084537 739.05182109 426.95019531 683.03076172 C427.96920993 680.08889023 429.01088017 677.1558048 430.0546875 674.22265625 C442.46791291 638.80518747 449.9445981 601.36363757 453 564 C453.10296387 562.77974121 453.20592773 561.55948242 453.31201172 560.30224609 C456.12881552 525.75746261 455.71790651 491.4521355 452 457 C451.92738953 456.31486328 451.85477905 455.62972656 451.77996826 454.92382812 C449.84965109 436.77852238 446.89859326 419.0273196 442.75146484 401.25683594 C442.04866896 398.21093047 441.38761181 395.15923487 440.73828125 392.1015625 C433.97200727 361.10615298 423.16571737 330.82968238 410 302 C409.57590851 301.07087799 409.57590851 301.07087799 409.14324951 300.12298584 C394.95729684 269.15973318 378.15415376 239.48414632 358 212 C357.26765137 210.99743164 357.26765137 210.99743164 356.52050781 209.97460938 C346.34936103 196.09572089 335.66120998 182.66012182 324 170 C322.56094109 168.39723164 321.12348208 166.79302558 319.6875 165.1875 C318.12532214 163.4580423 316.56280042 161.72889515 315 160 C314.34523682 159.26740967 314.34523682 159.26740967 313.67724609 158.52001953 C306.13185885 150.08568719 298.1562835 142.27359027 289.79882812 134.64599609 C288.11220571 133.10267249 286.43687443 131.5482176 284.765625 129.98828125 C278.3871534 124.05040763 271.81892032 118.42560913 265 113 C264.48775879 112.58814453 263.97551758 112.17628906 263.44775391 111.75195312 C212.87670931 71.09949661 154.24133105 38.78902082 92 20 C91.22994629 19.76265137 90.45989258 19.52530273 89.66650391 19.28076172 C74.63509332 14.67614259 59.38332968 11.20837574 44 8 C43.05060547 7.80132324 42.10121094 7.60264648 41.12304688 7.39794922 C27.49844725 4.58288823 13.81137593 2.64606265 0 1 C0 0.67 0 0.34 0 0 Z " fill="#B12233" transform="translate(1728,745)"/>
<path d="M0 0 C0.66 0 1.32 0 2 0 C3.71883092 2.13206902 5.30742827 4.26061182 6.875 6.5 C7.30941406 7.10070312 7.74382813 7.70140625 8.19140625 8.3203125 C21.85460592 27.60470843 20.55496565 50.40201378 20.2746582 73.04125977 C20.23303531 76.76959954 20.21532327 80.4980552 20.1953125 84.2265625 C20.15297802 91.48468139 20.08511743 98.7422429 20 106 C-16.19639143 106.06873957 -52.39277137 106.12156603 -88.58921469 106.15319599 C-92.86725651 106.15694789 -97.14529821 106.16083088 -101.42333984 106.16479492 C-102.70080506 106.16597532 -102.70080506 106.16597532 -104.00407766 106.16717956 C-117.77480766 106.18021617 -131.5454999 106.20386036 -145.31620754 106.23145839 C-159.45724797 106.25956121 -173.59826869 106.27618655 -187.73933589 106.28226548 C-196.45775899 106.28637183 -205.17607533 106.29931849 -213.89446555 106.3237494 C-219.88150243 106.33966687 -225.86848452 106.34438683 -231.85554101 106.34050413 C-235.3043523 106.33859189 -238.7529777 106.34142177 -242.20175552 106.35761642 C-275.06330201 106.48921703 -275.06330201 106.48921703 -286.5625 99.75 C-290.37556014 97.45913377 -290.37556014 97.45913377 -294.67578125 97.2109375 C-297.17622016 97.9350637 -297.17622016 97.9350637 -299.625 99.875 C-307.99737702 105.14649665 -318.53749624 106.13932405 -328.24609375 106.09765625 C-328.90207047 106.0962413 -329.55804718 106.09482635 -330.23390198 106.09336853 C-332.30181702 106.08783031 -334.36961842 106.07529002 -336.4375 106.0625 C-337.85090988 106.05747699 -339.26432148 106.0529155 -340.67773438 106.04882812 C-344.11852568 106.03788126 -347.55925172 106.02066038 -351 106 C-350.97462158 106.65154053 -350.94924316 107.30308105 -350.9230957 107.97436523 C-350.80519518 113.19134289 -350.98072279 117.23475047 -353.1875 122.0625 C-353.64769531 123.07054687 -354.10789062 124.07859375 -354.58203125 125.1171875 C-355.28392578 126.54417969 -355.28392578 126.54417969 -356 128 C-356.39574219 128.80695313 -356.79148437 129.61390625 -357.19921875 130.4453125 C-369.5281553 153.95630779 -392.11497191 171.39380967 -416 182 C-416.61834717 182.27593994 -417.23669434 182.55187988 -417.8737793 182.83618164 C-442.85819485 193.1957239 -474.78791543 177.32061566 -498.11865234 168.23339844 C-501 167 -501 167 -504 165 C-503.49396008 162.83125748 -503.00016187 161.00032373 -502 159 C-495.83550528 159.50183913 -489.82772293 160.3429409 -483.75537109 161.51123047 C-455.84443635 166.8530588 -430.84667741 162.57582853 -406.96484375 147.0234375 C-398.66581588 141.16392696 -390.9913535 134.3692645 -384 127 C-383.47019531 126.44183594 -382.94039062 125.88367188 -382.39453125 125.30859375 C-377.51068648 119.97194218 -373.61916834 114.25504666 -370 108 C-369.41476563 107.03449219 -368.82953125 106.06898438 -368.2265625 105.07421875 C-362.60814181 94.69464814 -362.20089148 83.37304132 -364.8203125 71.9765625 C-368.00273193 61.3610795 -373.54465757 51.11286329 -380.78125 42.69140625 C-383 40 -383 40 -383 38 C-383.66 38 -384.32 38 -385 38 C-387 35 -387 35 -386.8125 31.79296875 C-385.93773925 27.70935008 -384.63624392 24.13683425 -383 20.3125 C-380.62119673 14.78310391 -380.62119673 14.78310391 -379 9 C-372.72295438 9.74863847 -368.69014939 16.31411846 -365 21 C-354.93174166 34.9769063 -350.80078633 48.79630758 -350.9375 65.875 C-350.94201172 66.94492187 -350.94652344 68.01484375 -350.95117188 69.1171875 C-350.96290251 71.74484986 -350.97931772 74.37239538 -351 77 C-346.62528072 76.93043189 -342.2514305 76.8421463 -337.87744141 76.73754883 C-336.39381957 76.70458303 -334.91008085 76.67646583 -333.42626953 76.65356445 C-318.81413292 76.68937618 -318.81413292 76.68937618 -306 70.5625 C-302.25045151 65.758391 -301.74525817 62.73041012 -301.8125 56.5625 C-301.81894531 55.26441406 -301.82539063 53.96632813 -301.83203125 52.62890625 C-301.97228 49.59888084 -302.32740578 46.94195792 -303 44 C-303.6245713 38.37885833 -302.56960476 35.64962037 -299.2890625 31.28515625 C-298 30 -298 30 -296 30 C-295.5978125 31.36318359 -295.5978125 31.36318359 -295.1875 32.75390625 C-290.5709697 47.56021231 -284.28347376 63.98064046 -270.125 72 C-268.75918482 72.68528706 -267.38575902 73.35599581 -266 74 C-265.34 74.33 -264.68 74.66 -264 75 C-245.42862077 76.33744501 -226.74367931 73.39410519 -210 65 C-209.41605469 64.72269043 -208.83210938 64.44538086 -208.23046875 64.15966797 C-195.44849009 58.07130695 -184.13727575 50.05044157 -172.62792969 41.86376953 C-147.86588194 24.30213143 -125.99200475 13.33298016 -94.61425781 17.30175781 C-85.18876252 18.9473384 -77.8927856 23.03307982 -72.00390625 30.546875 C-68.02647427 36.40139026 -65.59253872 42.12758292 -64 49 C-63.67 50.32 -63.34 51.64 -63 53 C-63 60.92 -63 68.84 -63 77 C-39.57 77 -16.14 77 8 77 C5.47790993 51.26970553 5.47790993 51.26970553 -8.80078125 31.234375 C-10.25 29.8125 -10.25 29.8125 -12 27 C-10.90142054 20.46374505 -7.32060673 14.26660634 -4.3125 8.4375 C-3.68891602 7.21063477 -3.68891602 7.21063477 -3.05273438 5.95898438 C-2.04067005 3.96975449 -1.02307153 1.9835846 0 0 Z " fill="#FBFBFD" transform="translate(2917,340)"/>
<path d="M0 0 C0.91458984 0.48146484 0.91458984 0.48146484 1.84765625 0.97265625 C2.50765625 1.30265625 3.16765625 1.63265625 3.84765625 1.97265625 C3.84765625 2.63265625 3.84765625 3.29265625 3.84765625 3.97265625 C4.73324219 4.33617187 4.73324219 4.33617187 5.63671875 4.70703125 C14.53249465 9.79931286 18.95748668 23.44194378 21.65771484 32.77148438 C22.51186293 35.9337999 23.31658145 39.10402107 24.09765625 42.28515625 C24.34394775 43.27974854 24.59023926 44.27434082 24.84399414 45.29907227 C29.21174287 64.06605893 29.10636343 82.74297397 28.98498535 101.88079834 C28.96422508 105.50839884 28.9553283 109.13602862 28.9453125 112.76367188 C28.92410539 119.83340315 28.89014374 126.90301808 28.84765625 133.97265625 C2.39534276 134.06628014 -24.05694573 134.13672379 -50.50939178 134.17990494 C-62.79293878 134.20049153 -75.07638256 134.22853731 -87.35986328 134.27441406 C-98.0716336 134.31440151 -108.78332913 134.3401174 -119.49517202 134.34901023 C-125.16204181 134.35420484 -130.82869772 134.36633221 -136.49549866 134.39557648 C-141.84051959 134.42293399 -147.18524063 134.4310605 -152.53032494 134.42508698 C-154.48126549 134.42617818 -156.43221716 134.43400987 -158.38309669 134.44947815 C-187.60468075 134.66960656 -187.60468075 134.66960656 -197.15234375 125.97265625 C-204.86774915 117.58368371 -205.6680449 108.11103544 -205.390625 97.15234375 C-205.19710294 92.76782863 -204.57106258 88.54873558 -203.58984375 84.26953125 C-203.11755268 81.79000312 -203.08090609 79.49083385 -203.15234375 76.97265625 C-221.44818633 81.96346747 -221.44818633 81.96346747 -239.02734375 88.98046875 C-240.81225119 89.81386303 -242.62064915 90.59668605 -244.43359375 91.3671875 C-268.08105012 101.46767019 -290.3237047 114.83996673 -300.65234375 139.47265625 C-305.91191085 153.30336972 -303.61037713 167.70920311 -298.15234375 180.97265625 C-296.44788714 184.28074246 -294.49767526 187.09173221 -292.15234375 189.97265625 C-291.37890625 191.03806641 -291.37890625 191.03806641 -290.58984375 192.125 C-279.43033485 206.29857269 -261.85313553 212.88898081 -245.15234375 217.97265625 C-244.42080078 218.1953418 -243.68925781 218.41802734 -242.93554688 218.64746094 C-220.72881575 225.13589096 -196.97294456 225.43891329 -174.02734375 225.66015625 C-171.59243119 225.69346003 -169.1575347 225.72796076 -166.72265625 225.76367188 C-160.86599732 225.84704186 -155.00931889 225.91598275 -149.15234375 225.97265625 C-149.15234375 226.96265625 -149.15234375 227.95265625 -149.15234375 228.97265625 C-150.734375 230.42382813 -150.734375 230.42382813 -152.96484375 231.94140625 C-153.7837207 232.50778809 -154.60259766 233.07416992 -155.44628906 233.65771484 C-157.27791472 234.88617976 -159.11062967 236.11302185 -160.94433594 237.33837891 C-165.14388367 240.15869909 -169.20542524 242.89248192 -172.91796875 246.33984375 C-183.63711261 255.89291349 -195.68600554 255.1496148 -209.28125 254.47265625 C-211.90595434 254.31885229 -214.52880792 254.14613557 -217.15234375 253.97265625 C-218.71251221 253.89144531 -218.71251221 253.89144531 -220.30419922 253.80859375 C-249.3420007 252.27630914 -277.75308999 244.78437797 -298.0859375 222.890625 C-313.19992885 204.74710309 -316.9825416 180.45285684 -314.93408203 157.53027344 C-313.78734436 147.71548877 -311.6231612 138.85078523 -307.15234375 129.97265625 C-306.69859375 129.04066406 -306.24484375 128.10867188 -305.77734375 127.1484375 C-291.52994784 99.38924493 -264.50160505 85.12733846 -238.15234375 70.97265625 C-238.15234375 70.64265625 -238.15234375 70.31265625 -238.15234375 69.97265625 C-247.15108232 68.86566857 -256.10027892 68.73400149 -265.15234375 68.72265625 C-265.93003113 68.72065216 -266.70771851 68.71864807 -267.50897217 68.71658325 C-277.7336426 68.71012512 -287.52989796 69.07693844 -297.56640625 71.21875 C-301.7467199 72.09761768 -305.90433412 72.56557049 -310.15234375 72.97265625 C-308.79875796 62.48236639 -302.2860211 52.91761662 -294.19921875 46.3515625 C-275.10603045 33.48916656 -250.04761932 35.74501594 -228.49383545 39.11657715 C-214.50045373 41.30296106 -200.88752761 42.44418446 -186.71484375 42.34765625 C-185.52763229 42.34076782 -185.52763229 42.34076782 -184.31643677 42.33374023 C-174.89331351 42.25599433 -165.54020467 41.83948144 -156.15234375 40.97265625 C-157.73743683 50.41064968 -159.90688313 59.67470522 -162.15234375 68.97265625 C-166.08444406 69.6880679 -170.01714748 70.40005514 -173.95043945 71.10888672 C-175.28817451 71.3504605 -176.62574161 71.59296631 -177.96313477 71.83642578 C-179.88643601 72.18637662 -181.8103981 72.53268933 -183.734375 72.87890625 C-184.89171143 73.08837891 -186.04904785 73.29785156 -187.24145508 73.51367188 C-190.15234375 73.97265625 -190.15234375 73.97265625 -193.15234375 73.97265625 C-193.06490646 76.84904143 -192.95797025 79.72250187 -192.83984375 82.59765625 C-192.81728516 83.40589844 -192.79472656 84.21414063 -192.77148438 85.046875 C-192.49567968 91.21487101 -191.418599 95.706401 -186.90234375 100.22265625 C-180.57874366 104.2467654 -174.18011584 104.27474324 -166.90258789 104.29150391 C-165.39412796 104.30657234 -165.39412796 104.30657234 -163.85519409 104.32194519 C-160.54930158 104.35270113 -157.24348979 104.36979135 -153.9375 104.38671875 C-151.63821217 104.40543648 -149.33893117 104.42501035 -147.03965759 104.44540405 C-141.00141427 104.49666716 -134.9631487 104.53632415 -128.92480469 104.57354736 C-122.75775676 104.61362343 -116.59080095 104.66469936 -110.42382812 104.71484375 C-98.3333981 104.81153417 -86.24291599 104.89596106 -74.15234375 104.97265625 C-74.54565542 101.17819553 -74.97131953 97.38800329 -75.40234375 93.59765625 C-75.51191406 92.53675781 -75.62148437 91.47585938 -75.734375 90.3828125 C-76.94626482 79.98607352 -79.6704232 71.74466295 -86.77734375 63.97265625 C-87.2671875 63.41449219 -87.75703125 62.85632813 -88.26171875 62.28125 C-90.16934534 60.11823078 -92.11289028 58.01210972 -94.15234375 55.97265625 C-94.00565867 49.85099882 -90.7379741 44.47405293 -88.08984375 39.09765625 C-87.61740234 38.123125 -87.14496094 37.14859375 -86.65820312 36.14453125 C-85.49638778 33.75048751 -84.32762305 31.36011131 -83.15234375 28.97265625 C-80.15234375 28.97265625 -80.15234375 28.97265625 -77.46484375 31.59765625 C-59.66463128 53.66991972 -62.15234375 76.63781224 -62.15234375 104.97265625 C-36.74234375 104.97265625 -11.33234375 104.97265625 14.84765625 104.97265625 C14.18765625 99.03265625 13.52765625 93.09265625 12.84765625 86.97265625 C12.5075896 83.64000312 12.17033831 80.30703753 11.84765625 76.97265625 C10.82285156 77.32199219 9.79804687 77.67132813 8.7421875 78.03125 C7.38156488 78.49104661 6.02088474 78.95067305 4.66015625 79.41015625 C3.98662109 79.64025391 3.31308594 79.87035156 2.61914062 80.10742188 C-8.23358799 83.76029151 -20.4308502 85.22795251 -31.0703125 80.1640625 C-37.15912177 76.67984707 -40.71079819 72.58361039 -43.15234375 65.97265625 C-47.69372864 48.38235879 -42.47297942 27.61624945 -34.15234375 11.97265625 C-26.17799965 -0.93639962 -14.20860972 -6.99153811 0 0 Z " fill="#FBFBFD" transform="translate(1385.15234375,312.02734375)"/>
<path d="M0 0 C3.64760007 1.21586669 4.18881922 2.66330077 5.90600586 5.96484375 C6.24639893 6.65707031 6.58679199 7.34929687 6.9375 8.0625 C7.29013916 8.7740625 7.64277832 9.485625 8.00610352 10.21875 C14.4672654 23.81302267 16.18373946 38.0968728 16.0625 53 C16.05798828 54.06089844 16.05347656 55.12179687 16.04882812 56.21484375 C16.03713843 58.80995598 16.02075276 61.40494709 16 64 C35.6376437 63.8627491 51.56775132 61.83941774 66.5 47.875 C71.47655077 42.67491622 75.65434194 36.72638554 80 31 C89.1074797 19.06606109 105.59067288 4.8996002 120.80078125 2.3671875 C121.85652344 2.24601562 122.91226563 2.12484375 124 2 C133.82687187 17.704627 143.49881537 33.19295257 149 51 C149.34603271 52.04792725 149.69206543 53.09585449 150.04858398 54.17553711 C151.09474519 58.38085282 151.25619079 62.03782763 151.1953125 66.33984375 C151.19106766 67.49027916 151.19106766 67.49027916 151.18673706 68.66395569 C151.17563475 71.08863621 151.15054967 73.51293309 151.125 75.9375 C151.1149573 77.5917915 151.10583372 79.24608885 151.09765625 80.90039062 C151.07572817 84.93373923 151.04126843 88.9668048 151 93 C126.03306212 93.8197252 104.94274594 90.58495406 84.453125 75.50390625 C81.91120849 73.65156163 81.91120849 73.65156163 78 74 C76.86921165 75.37065254 75.74486288 76.74709078 74.65234375 78.1484375 C65.58018179 88.31440622 53.20152086 92.11563358 40 93 C35.81117886 93.10785629 31.62732472 93.09533166 27.4375 93.0625 C26.33341797 93.05798828 25.22933594 93.05347656 24.09179688 93.04882812 C21.394473 93.0371514 18.69726653 93.02077525 16 93 C16.03480469 94.08796875 16.06960937 95.1759375 16.10546875 96.296875 C16.49938365 113.62715129 12.8581364 128.55159949 1.125 142 C-3.18388748 146.44598845 -7.61010351 149.96941717 -13 153 C-13.62132813 153.36480469 -14.24265625 153.72960937 -14.8828125 154.10546875 C-42.35351388 169.10516135 -84.85990204 170.57240373 -114.4230957 162.37646484 C-127.0881652 158.55624992 -138.03738334 152.21530589 -144.8125 140.5 C-145.59663027 139.0279865 -146.31838343 137.52219673 -147 136 C-147.53109375 134.89398438 -148.0621875 133.78796875 -148.609375 132.6484375 C-150.90347335 126.38028184 -150.49758089 119.7113555 -150.4375 113.125 C-150.43479095 112.4350293 -150.43208191 111.74505859 -150.42929077 111.03417969 C-150.36313249 99.93375286 -149.34990209 89.61932525 -146 79 C-145.80744629 78.35756348 -145.61489258 77.71512695 -145.41650391 77.05322266 C-140.49022676 60.70226267 -133.43647805 45.32252275 -126 30 C-124.02 30.33 -122.04 30.66 -120 31 C-118.81404235 34.55787296 -119.20399603 35.09683629 -120.6953125 38.39453125 C-121.07929199 39.26086182 -121.46327148 40.12719238 -121.85888672 41.01977539 C-122.2767041 41.94137451 -122.69452148 42.86297363 -123.125 43.8125 C-123.96653663 45.72264166 -124.80507989 47.6341049 -125.640625 49.546875 C-126.25260742 50.94776367 -126.25260742 50.94776367 -126.87695312 52.37695312 C-132.62150086 65.79421853 -136.53683355 78.95975569 -136.4375 93.625 C-136.45748047 94.67945313 -136.47746094 95.73390625 -136.49804688 96.8203125 C-136.49142409 107.52273106 -133.54085005 115.30885525 -126.11328125 123.03515625 C-116.94351428 131.56083608 -103.39546331 135.76549123 -91 136 C-90.34580078 136.01901367 -89.69160156 136.03802734 -89.01757812 136.05761719 C-61.87928749 136.78560124 -30.37557387 133.64425055 -9 115 C-1.74278997 108.11072545 3.03420131 101.20730764 3.53125 90.99609375 C3.54849254 88.80993901 3.53707638 86.62340832 3.5 84.4375 C3.48646484 83.28652832 3.47292969 82.13555664 3.45898438 80.94970703 C3.0953697 65.89563648 -0.38479127 48.60139893 -10.80859375 36.984375 C-12.28111725 34.53177847 -12.14876209 32.91237497 -11.60498047 30.14550781 C-10.27461099 25.42747431 -8.40233333 20.9126797 -6.5625 16.375 C-6.15451172 15.35148437 -5.74652344 14.32796875 -5.32617188 13.2734375 C-4.22441495 10.51275457 -3.11336005 7.75601813 -2 5 C-1.33271363 3.33358135 -0.66585834 1.66698977 0 0 Z " fill="#FBFBFD" transform="translate(2164,353)"/>
<path d="M0 0 C12.32290313 7.45105771 17.90738468 25.36558906 21.40478516 38.484375 C26.80270802 61.29823767 27.14285279 84.07837913 27.0625 107.375 C27.041875 115.83125 27.02125 124.2875 27 133 C-3.36 133 -33.72 133 -65 133 C-65 136.3 -65 139.6 -65 143 C-70.84176794 167.43233531 -93.59153139 188.14524034 -114.06542969 200.84521484 C-124.51556043 207.08311469 -135.36532836 212.60644325 -147.75 212.5 C-148.56436523 212.49355469 -149.37873047 212.48710938 -150.21777344 212.48046875 C-168.15985035 211.9610029 -185.35711956 205.15749427 -202 199 C-202.80953125 198.70915527 -203.6190625 198.41831055 -204.453125 198.11865234 C-206.60076631 197.34661547 -208.73898874 196.55356208 -210.875 195.75 C-212.04804687 195.31171875 -213.22109375 194.8734375 -214.4296875 194.421875 C-217 193 -217 193 -218.0078125 191.015625 C-218 189 -218 189 -216 186 C-209.91328376 186.49249534 -203.99904954 187.32457305 -198.01049805 188.51196289 C-170.92317926 193.79449371 -146.60461797 190.84540114 -123.17578125 175.578125 C-115.94082926 170.6430572 -109.32433345 165.05779066 -103 159 C-102.113125 158.154375 -101.22625 157.30875 -100.3125 156.4375 C-99.1678125 155.2309375 -99.1678125 155.2309375 -98 154 C-97.47019531 153.44183594 -96.94039062 152.88367188 -96.39453125 152.30859375 C-91.51817556 146.98012562 -87.72682237 141.17139645 -84 135 C-83.49984375 134.23042969 -82.9996875 133.46085938 -82.484375 132.66796875 C-76.72465466 122.31562929 -76.15565878 110.44732179 -78.80859375 98.95703125 C-82.03836028 88.35132731 -87.53968206 78.11865345 -94.78125 69.69140625 C-97 67 -97 67 -97 65 C-97.66 65 -98.32 65 -99 65 C-101 62 -101 62 -100.8125 58.79296875 C-99.93773925 54.70935008 -98.63624392 51.13683425 -97 47.3125 C-94.62119673 41.78310391 -94.62119673 41.78310391 -93 36 C-86.72295438 36.74863847 -82.69014939 43.31411846 -79 48 C-65.91394888 66.16625121 -65 81.15727824 -65 104 C-39.59 104 -14.18 104 12 104 C11.29476766 90.77434037 11.29476766 90.77434037 9 78 C4.86497976 78 2.06178298 78.80148679 -1.875 80 C-12.36525018 82.96214954 -23.92981942 83.93019257 -34 79 C-39.84367734 75.16508675 -43.73079046 70.64463502 -46 64 C-46.47084233 60.49880259 -46.42688873 57.08821497 -46.3125 53.5625 C-46.30283203 52.67240234 -46.29316406 51.78230469 -46.28320312 50.86523438 C-46.13981425 42.33047891 -45.43064214 34.27384006 -42.8125 26.125 C-42.48258057 25.09354858 -42.48258057 25.09354858 -42.14599609 24.04125977 C-38.51818497 13.14892848 -33.36717759 3.41517291 -23.125 -2.4375 C-14.94861894 -6.06970005 -7.68073234 -3.87423183 0 0 Z " fill="#FAFBFC" transform="translate(949,313)"/>
<path d="M0 0 C0.33 0 0.66 0 1 0 C2.68094816 10.99785054 4.3437362 21.9984084 6 33 C6.15934021 34.05785706 6.31868042 35.11571411 6.48284912 36.20562744 C7.54431709 43.25656105 8.60096279 50.30819909 9.65307617 57.36053467 C10.00573747 59.72094074 10.35955423 62.0811745 10.71459961 64.44122314 C16.3716088 102.06593525 16.3716088 102.06593525 16.25 118.625 C16.25773437 119.71683594 16.26546875 120.80867188 16.2734375 121.93359375 C16.25874284 128.00983684 15.76941444 133.18796506 14 139 C13.46632813 140.87171875 13.46632813 140.87171875 12.921875 142.78125 C8.00126562 158.39598375 8.00126562 158.39598375 3 162 C-6.46285076 164.84066457 -20.68481365 159.51864204 -29.125 155.0625 C-30.76991451 154.07407603 -32.39817069 153.05682003 -34 152 C-34.59167969 151.61070312 -35.18335938 151.22140625 -35.79296875 150.8203125 C-41.08815958 146.87274093 -45.73887589 140.54300862 -47 134 C-47.66 134 -48.32 134 -49 134 C-49.3403125 135.175625 -49.3403125 135.175625 -49.6875 136.375 C-53.9489354 148.14467873 -60.78622378 159.689586 -72 166 C-79.6540013 169.13315351 -89.13280115 169.4337008 -97.08984375 167.08984375 C-106.07794325 162.88638669 -109.39089013 156.91332081 -112.93359375 147.984375 C-114.23217109 144.35026112 -115.16338683 140.76475926 -116 137 C-116.33 136.34 -116.66 135.68 -117 135 C-117.3403125 135.64066406 -117.680625 136.28132812 -118.03125 136.94140625 C-121.74929795 143.57653969 -126.02938923 149.51469461 -133 153 C-143.76756953 154.04630584 -154.71572473 153.24646632 -165.3125 151.25 C-166.59024292 151.01470581 -166.59024292 151.01470581 -167.89379883 150.7746582 C-173.35740919 149.64844687 -179.92825404 148.07174596 -184 144 C-184.66124656 135.59272236 -180.72670169 129.22631013 -177 122 C-176.64695801 121.30003906 -176.29391602 120.60007812 -175.93017578 119.87890625 C-167.6373903 103.57013553 -156.14969914 95.74220529 -141 86 C-140.34789551 85.57557617 -139.69579102 85.15115234 -139.02392578 84.71386719 C-137.29357614 83.58980846 -135.55548268 82.47934049 -133.8125 81.375 C-132.84957031 80.76398438 -131.88664062 80.15296875 -130.89453125 79.5234375 C-127.6052859 77.79225574 -124.59633619 76.90468233 -121 76 C-121.04640625 75.10539062 -121.0928125 74.21078125 -121.140625 73.2890625 C-121.54386976 59.78036304 -118.31991969 52.77890507 -109.2421875 43.0546875 C-107 41 -107 41 -105 41 C-104.99413376 41.56866791 -104.98826752 42.13733582 -104.98222351 42.72323608 C-104.93326489 74.66676865 -104.93326489 74.66676865 -102.6875 106.5 C-102.58203857 107.46083496 -102.47657715 108.42166992 -102.36791992 109.41162109 C-101.2467092 117.8541303 -99.00775149 126.62195816 -92 132 C-86.41248892 135.17721219 -81.28965498 135.97630465 -75 135 C-67.41156671 132.55357972 -62.71613204 128.26322297 -58 122 C-57.175 121.071875 -56.35 120.14375 -55.5 119.1875 C-53.8795924 115.74413385 -53.91749708 114.61623154 -54.3203125 110.94970703 C-54.42569336 109.96995911 -54.53107422 108.99021118 -54.63964844 107.98077393 C-55.17891247 103.52006299 -55.75151407 99.06693019 -56.375 94.6171875 C-56.50438965 93.67747101 -56.6337793 92.73775452 -56.76708984 91.76956177 C-57.1756861 88.80437402 -57.58760944 85.83966221 -58 82.875 C-58.41191311 79.90313396 -58.82307308 76.93116795 -59.23291016 73.95901489 C-59.48648 72.12116643 -59.74127935 70.28348701 -59.99755859 68.4460144 C-64.8996314 32.99937947 -64.8996314 32.99937947 -58.56640625 22.94921875 C-51.87773723 14.62591241 -51.87773723 14.62591241 -47 13 C-45.63743257 20.81805303 -44.48600094 28.63028237 -43.5625 36.51171875 C-43.43689697 37.56422318 -43.31129395 38.6167276 -43.18188477 39.7011261 C-42.78530157 43.02961199 -42.39258316 46.35854021 -42 49.6875 C-41.73723394 51.89781676 -41.47421486 54.10810346 -41.2109375 56.31835938 C-40.26905449 64.23564706 -39.33018176 72.15327944 -38.40893555 80.07299805 C-38.31962769 80.83888748 -38.23031982 81.60477692 -38.13830566 82.39387512 C-37.90726778 84.37819739 -37.67756759 86.36267529 -37.44799805 88.34716797 C-35.32540256 106.03144434 -35.32540256 106.03144434 -24.70703125 119.984375 C-18.09368782 124.90495485 -9.54548111 130.7307654 -1 130 C0.46258364 128.7641495 0.46258364 128.7641495 0.14941406 125.00292969 C0.09295566 120.21294183 -0.54355915 115.65933659 -1.390625 110.953125 C-1.53533234 110.11155853 -1.68003967 109.26999207 -1.82913208 108.40292358 C-2.13772025 106.60983509 -2.44936418 104.81727017 -2.76385498 103.02520752 C-3.58728402 98.32458039 -4.38388128 93.6194331 -5.1796875 88.9140625 C-5.33801056 87.97948212 -5.49633362 87.04490173 -5.65945435 86.08200073 C-7.02842933 77.94618176 -8.25472621 69.7988495 -9.375 61.625 C-9.53000977 60.50641602 -9.68501953 59.38783203 -9.84472656 58.23535156 C-15.09238012 19.11104609 -15.09238012 19.11104609 -4.3125 4.9375 C-1.45098039 1.45098039 -1.45098039 1.45098039 0 0 Z " fill="#FBFBFD" transform="translate(1834,283)"/>
<path d="M0 0 C7.39944591 6.72676901 12.09068039 14.26515946 15.3125 23.6875 C15.55476318 24.38061279 15.79702637 25.07372559 16.04663086 25.7878418 C21.85565974 43.94080073 20 63.29180077 20 82 C43.43 82 66.86 82 91 82 C89.70366378 62.5549567 88.50952928 51.05221828 75.01171875 36.91796875 C73.3125 35.125 73.3125 35.125 71 32 C72.25656729 26.09321651 75.50617722 20.53870088 78.125 15.125 C78.59292969 14.15046875 79.06085938 13.1759375 79.54296875 12.171875 C80.69214845 9.77970501 81.84457243 7.38915684 83 5 C87.41521362 6.92815552 89.43338225 9.99659974 92 13.9375 C92.44279297 14.61554688 92.88558594 15.29359375 93.34179688 15.9921875 C99.81961087 26.17573462 101.8726242 36.05108418 103 48 C103.08376892 48.85427078 103.16753784 49.70854156 103.25384521 50.58869934 C103.9182106 57.85440114 104.13338272 65.0349052 104.09765625 72.328125 C104.09553383 74.00065338 104.09553383 74.00065338 104.09336853 75.70697021 C104.08783115 79.22134235 104.07529087 82.73564756 104.0625 86.25 C104.05747689 88.65234282 104.05291541 91.05468665 104.04882812 93.45703125 C104.03788234 99.30470981 104.02120805 105.15235012 104 111 C71.89723298 111.04569429 39.79447527 111.08105495 7.69168329 111.10213066 C3.89561107 111.10463186 0.09953892 111.10722053 -3.6965332 111.10986328 C-4.83005545 111.11065021 -4.83005545 111.11065021 -5.98647713 111.11145304 C-18.19808871 111.12013901 -30.40968133 111.13589895 -42.62128169 111.15430559 C-55.1656206 111.17305509 -67.70994962 111.18412737 -80.25430197 111.18817699 C-87.98538968 111.1909116 -95.71642378 111.19952654 -103.44749498 111.21583293 C-109.39080764 111.22772467 -115.33409327 111.22889866 -121.27741814 111.22621536 C-123.70446984 111.22676288 -126.1315237 111.23070476 -128.55856323 111.23841095 C-159.9955803 111.33328137 -159.9955803 111.33328137 -174.1875 106.3125 C-174.94087646 106.05122314 -175.69425293 105.78994629 -176.47045898 105.52075195 C-190.75724374 100.36506626 -201.43691985 92.4866331 -208.80859375 79.06640625 C-214.64487549 64.04515652 -214.09821371 43.23475818 -207.95703125 28.49707031 C-203.90574183 19.30300331 -199.51168526 10.41040162 -194 2 C-192.35 2.99 -190.7 3.98 -189 5 C-190.36604869 9.47070479 -191.77568678 13.75146549 -194 17.875 C-199.32182087 28.31395631 -200.9512573 40.53352764 -198.30859375 52 C-194.70929727 61.87924054 -188.24215336 67.38531485 -179 72 C-160.66841785 80.30686585 -141.88005763 81.11715122 -122.07836914 81.20532227 C-120.65745278 81.21493616 -119.23653907 81.22494807 -117.81562805 81.23532104 C-114.01086974 81.26199679 -110.2060995 81.28320464 -106.40130162 81.30332303 C-102.40548824 81.32541724 -98.40971002 81.35268958 -94.41392517 81.37937927 C-86.87084306 81.42899328 -79.3277411 81.47404615 -71.7846207 81.51740164 C-63.18707339 81.56704412 -54.5895614 81.62186073 -45.99204838 81.67708123 C-28.32806516 81.79041993 -10.66404847 81.89736084 7 82 C6.72538878 77.83366059 6.43262696 73.66878295 6.13671875 69.50390625 C6.0211261 67.74512146 6.0211261 67.74512146 5.90319824 65.95080566 C4.86082928 51.57721919 1.0663746 40.08779756 -10 30.3125 C-12 28 -12 28 -11.8671875 25.390625 C-10.77490102 21.11988327 -9.0508441 17.38927687 -7.125 13.4375 C-6.77308594 12.69564453 -6.42117188 11.95378906 -6.05859375 11.18945312 C-4.21309052 7.33722241 -2.27932048 3.61967561 0 0 Z " fill="#FAFBFC" transform="translate(615,335)"/>
<path d="M0 0 C6.31597631 3.43842726 10.07636743 9.50805221 12.14892578 16.26611328 C13.48256904 21.211389 14.53096289 26.20311407 15.5234375 31.2265625 C15.6992334 31.93482178 15.8750293 32.64308105 16.05615234 33.37280273 C16.73092521 37.49371184 16.72684706 41.57232289 16.76171875 45.7421875 C16.7697905 46.67142029 16.77786224 47.60065308 16.78617859 48.55804443 C16.79999198 50.52826085 16.81072638 52.49850091 16.81860352 54.46875 C16.83003611 56.45254702 16.85034653 58.43631545 16.88012695 60.41992188 C17.11473659 76.07454488 16.50739193 91.57185743 8.7109375 105.6015625 C8.36474365 106.25600342 8.0185498 106.91044434 7.66186523 107.5847168 C-3.14745871 127.71847241 -17.56316376 146.09914293 -39.9140625 153.6640625 C-66.15648181 160.33292813 -94.11910213 150.71258882 -118.4765625 141.2265625 C-119.4665625 140.5665625 -120.4565625 139.9065625 -121.4765625 139.2265625 C-120.6015625 135.3515625 -120.6015625 135.3515625 -119.4765625 134.2265625 C-112.79892762 134.27584394 -106.53788782 135.5574443 -100.1796875 137.5078125 C-80.17296527 142.82751899 -60.05573787 138.8556379 -42.3515625 128.9140625 C-36.64453913 125.48835253 -31.56287178 121.50188313 -26.4765625 117.2265625 C-25.62191406 116.55882812 -24.76726562 115.89109375 -23.88671875 115.203125 C-21.79795132 113.49013259 -20.09493892 111.83821437 -18.3515625 109.7890625 C-17.75988281 109.09554687 -17.16820312 108.40203125 -16.55859375 107.6875 C-15.87152344 106.87539063 -15.18445312 106.06328125 -14.4765625 105.2265625 C-13.61417969 104.22882813 -12.75179688 103.23109375 -11.86328125 102.203125 C-6.03989995 95.43950496 -0.59579678 88.54604074 4.5234375 81.2265625 C3.8428125 81.27296875 3.1621875 81.319375 2.4609375 81.3671875 C-9.86371131 81.826084 -22.96442714 79.5963629 -32.4765625 71.2265625 C-34.7890625 68.9765625 -34.7890625 68.9765625 -36.4765625 66.2265625 C-37.03150391 65.33710938 -37.03150391 65.33710938 -37.59765625 64.4296875 C-43.04180259 53.8051251 -41.81177131 38.94129289 -38.9140625 27.6640625 C-35.31107987 16.98198019 -29.61292612 6.46033783 -19.69140625 0.57421875 C-13.57206607 -1.99099676 -6.33535303 -1.97854874 0 0 Z " fill="#FAFBFC" transform="translate(1544.4765625,364.7734375)"/>
<path d="M0 0 C2.55841198 3.83761797 2.77072934 7.4563441 3.296875 11.9296875 C3.410952 12.84648285 3.52502899 13.7632782 3.64256287 14.70785522 C4.02007581 17.76260935 4.38541823 20.81867743 4.75 23.875 C5.01176995 26.02706152 5.27390205 28.17907903 5.53637695 30.33105469 C6.37213299 37.21899752 7.18713604 44.10932426 8 51 C8.13508972 52.13932983 8.27017944 53.27865967 8.40936279 54.45251465 C17.18365031 128.46424237 17.18365031 128.46424237 17.3125 155.0625 C17.31813965 156.12098145 17.3237793 157.17946289 17.32958984 158.27001953 C17.19174897 172.69658577 13.737692 185.51937233 6.8125 198.125 C6.34908203 198.98609375 5.88566406 199.8471875 5.40820312 200.734375 C4.28024554 202.82749217 3.14419787 204.91573044 2 207 C1.01 206.67 0.02 206.34 -1 206 C-1.01458252 204.83581543 -1.02916504 203.67163086 -1.04418945 202.47216797 C-1.3895797 176.76773143 -2.31914944 151.25901016 -4.74743652 125.6652832 C-5.01735501 122.81685387 -5.28268646 119.96801619 -5.54785156 117.11914062 C-7.77605972 93.3045619 -10.22175651 69.53884484 -13.56396484 45.85180664 C-13.66833862 45.08979446 -13.7727124 44.32778229 -13.88024902 43.54267883 C-14.15809941 41.51678081 -14.44558851 39.49221109 -14.73388672 37.46777344 C-15.21859659 31.15142574 -13.68996292 26.88659385 -10.83984375 21.2890625 C-10.53051407 20.67606293 -10.22118439 20.06306335 -9.90248108 19.43148804 C-8.92166085 17.49207387 -7.92981374 15.55855427 -6.9375 13.625 C-6.2668389 12.30376039 -5.59690944 10.98214913 -4.92773438 9.66015625 C-3.29359525 6.43576275 -1.6495238 3.21655555 0 0 Z " fill="#F9FAFC" transform="translate(1885,243)"/>
<path d="M0 0 C2.57668269 1.92100897 3.76566768 3.21107163 4.75 6.3046875 C4.99330772 10.82210085 4.71255704 14.16165101 1.75 17.6796875 C-7.09847997 22.47261415 -16.19678756 23.46295007 -26.12280273 23.41821289 C-27.41180733 23.41843193 -27.41180733 23.41843193 -28.72685242 23.4186554 C-31.54579255 23.41796295 -34.36466526 23.41020203 -37.18359375 23.40234375 C-39.14657047 23.40047719 -41.10954767 23.39905441 -43.07252502 23.39805603 C-48.22306621 23.39424956 -53.37357891 23.38443533 -58.52410889 23.37335205 C-63.78625096 23.36309763 -69.04839767 23.35854979 -74.31054688 23.35351562 C-84.62371039 23.34281131 -94.93685282 23.32575746 -105.25 23.3046875 C-103.69442003 20.19352756 -100.6443592 19.32842721 -97.625 17.8671875 C-96.92930908 17.52518311 -96.23361816 17.18317871 -95.5168457 16.83081055 C-93.09869663 15.6467369 -90.67505376 14.47455351 -88.25 13.3046875 C-87.31494629 12.85287109 -86.37989258 12.40105469 -85.41650391 11.93554688 C-26.52028406 -16.47767649 -26.52028406 -16.47767649 0 0 Z " fill="#042A81" transform="translate(2822.25,393.6953125)"/>
<path d="M0 0 C1.65 0 3.3 0 5 0 C7.09728489 8.99802873 7.45239841 19.66283963 3 28 C0.07694699 31.61535503 -2.47451772 33.84231849 -7 35 C-11.89739323 35.46879324 -15.47263822 35.01216079 -20 33 C-23.92302171 32.54262591 -23.92302171 32.54262591 -25.78125 34.6796875 C-26.3484375 35.40414062 -26.915625 36.12859375 -27.5 36.875 C-29.78974085 39.77880771 -31.4716995 41.75132741 -35 43 C-37.83984375 43.30078125 -37.83984375 43.30078125 -40.9375 43.3125 C-41.95714844 43.32925781 -42.97679687 43.34601563 -44.02734375 43.36328125 C-47.45778245 42.9440555 -49.27146596 42.10215753 -52 40 C-55.09649209 35.5376836 -54.47625925 30.1968289 -54 25 C-53.06699858 21.14283559 -51.77371653 17.54743306 -50 14 C-49.01 14 -48.02 14 -47 14 C-46.95101563 14.75925781 -46.90203125 15.51851563 -46.8515625 16.30078125 C-46.77679687 17.29464844 -46.70203125 18.28851563 -46.625 19.3125 C-46.52058594 20.79169922 -46.52058594 20.79169922 -46.4140625 22.30078125 C-46.16134528 25.21528433 -46.16134528 25.21528433 -44 28 C-39.69234789 28.66271571 -37.64717824 28.42392683 -33.9765625 26.01953125 C-30.24633021 22.73921733 -29.04975432 18.83157626 -27.625 14.1875 C-27.36589844 13.39923828 -27.10679688 12.61097656 -26.83984375 11.79882812 C-26.20908741 9.87151709 -25.60207541 7.9364624 -25 6 C-23.68 6 -22.36 6 -21 6 C-20.72285156 6.78246094 -20.44570312 7.56492187 -20.16015625 8.37109375 C-19.61681641 9.88896484 -19.61681641 9.88896484 -19.0625 11.4375 C-18.52302734 12.95150391 -18.52302734 12.95150391 -17.97265625 14.49609375 C-17.23122361 16.90313745 -17.23122361 16.90313745 -16 18 C-10.50751285 18.57680626 -10.50751285 18.57680626 -5.6875 16.4375 C-2.09994067 11.25546986 -0.63571882 6.23004439 0 0 Z " fill="#F8F9FB" transform="translate(1795,254)"/>
<path d="M0 0 C0.33 0 0.66 0 1 0 C1.17367998 4.87449089 1.30035478 9.74716397 1.38452148 14.62402344 C1.4196197 16.28091823 1.46731347 17.9375978 1.52807617 19.59375 C2.02078972 33.37316765 2.02078972 33.37316765 -0.51904297 37.42089844 C-2.29612363 38.9625401 -3.86735839 40.02572144 -6 41 C-6.99 41.495 -6.99 41.495 -8 42 C-19.45007635 43.25348204 -31.34465408 39.92565376 -42 36 C-42 35.34 -42 34.68 -42 34 C-39.86432063 32.43199403 -37.72918115 30.9872722 -35.5 29.5625 C-34.12562377 28.66510049 -32.7519499 27.76662457 -31.37890625 26.8671875 C-30.66105957 26.39893555 -29.94321289 25.93068359 -29.20361328 25.44824219 C-25.58572685 23.07052201 -22.00902519 20.63411224 -18.4375 18.1875 C-17.78394531 17.74414307 -17.13039063 17.30078613 -16.45703125 16.84399414 C-8.25214571 11.33773347 -8.25214571 11.33773347 -2.1875 3.6875 C-1.47867881 2.44648943 -0.75556504 1.21311837 0 0 Z " fill="#052A81" transform="translate(1713,367)"/>
<path d="M0 0 C3.96697704 0.47823845 7.01189836 1.86106338 10.51953125 3.72265625 C11.54111328 4.26083984 12.56269531 4.79902344 13.61523438 5.35351562 C14.67033203 5.91748047 15.72542969 6.48144531 16.8125 7.0625 C17.88693359 7.63033203 18.96136719 8.19816406 20.06835938 8.78320312 C22.71530675 10.18314418 25.35898899 11.58890112 28 13 C26.24473219 17.47028167 24.24771368 21.75788916 22.125 26.0625 C21.78597656 26.76955078 21.44695312 27.47660156 21.09765625 28.20507812 C20.75863281 28.89150391 20.41960937 29.57792969 20.0703125 30.28515625 C19.61809326 31.21146851 19.61809326 31.21146851 19.15673828 32.15649414 C17.72249855 34.44225696 15.95513197 36.15229567 14 38 C10.00918083 35.93844055 6.03467131 33.8472346 2.0625 31.75 C0.92619141 31.16347656 -0.21011719 30.57695312 -1.38085938 29.97265625 C-2.46044922 29.39902344 -3.54003906 28.82539063 -4.65234375 28.234375 C-5.65257568 27.71069336 -6.65280762 27.18701172 -7.68334961 26.64746094 C-10 25 -10 25 -10.96264648 23.09350586 C-11.01205536 20.32434856 -10.21247266 18.72786105 -8.9453125 16.26953125 C-8.49542969 15.38458984 -8.04554687 14.49964844 -7.58203125 13.58789062 C-7.10121094 12.67201172 -6.62039063 11.75613281 -6.125 10.8125 C-5.65191406 9.88501953 -5.17882813 8.95753906 -4.69140625 8.00195312 C-1.19666353 1.19666353 -1.19666353 1.19666353 0 0 Z " fill="#F9FAFC" transform="translate(1364,248)"/>
<path d="M0 0 C4.06497208 1.25758443 7.67690212 2.76252235 11.3984375 4.8203125 C12.37167969 5.35527344 13.34492187 5.89023437 14.34765625 6.44140625 C15.34667969 6.99699219 16.34570312 7.55257813 17.375 8.125 C18.39722656 8.68832031 19.41945313 9.25164062 20.47265625 9.83203125 C22.98425792 11.2169331 25.49323719 12.60636455 28 14 C26.71663984 17.33209776 25.29046548 20.49104583 23.6171875 23.64453125 C22.95009766 24.90620117 22.95009766 24.90620117 22.26953125 26.19335938 C21.80933594 27.05767578 21.34914063 27.92199219 20.875 28.8125 C20.40707031 29.69615234 19.93914063 30.57980469 19.45703125 31.49023438 C18.30692397 33.66135525 17.15451854 35.8312226 16 38 C9.94965688 36.30916337 4.63585129 33.3171076 -0.875 30.375 C-1.84953125 29.859375 -2.8240625 29.34375 -3.828125 28.8125 C-6.22093706 27.54571714 -8.61144536 26.27478682 -11 25 C-10.40541585 21.34430318 -9.39426489 18.43178554 -7.71484375 15.13671875 C-7.26689453 14.25048828 -6.81894531 13.36425781 -6.35742188 12.45117188 C-5.88884766 11.53916016 -5.42027344 10.62714844 -4.9375 9.6875 C-4.46505859 8.75615234 -3.99261719 7.82480469 -3.50585938 6.86523438 C-2.34262356 4.57401231 -1.17386868 2.2857876 0 0 Z " fill="#FAFBFC" transform="translate(512,472)"/>
<path d="M0 0 C3.96149465 0.60631917 6.98723529 1.84797404 10.51953125 3.72265625 C11.54111328 4.26083984 12.56269531 4.79902344 13.61523438 5.35351562 C14.67033203 5.91748047 15.72542969 6.48144531 16.8125 7.0625 C17.88693359 7.63033203 18.96136719 8.19816406 20.06835938 8.78320312 C22.71530675 10.18314418 25.35898899 11.58890112 28 13 C26.83005112 16.73537897 25.54290605 20.11639699 23.6171875 23.5234375 C22.95009766 24.71259766 22.95009766 24.71259766 22.26953125 25.92578125 C21.80933594 26.73402344 21.34914063 27.54226563 20.875 28.375 C20.40707031 29.20644531 19.93914062 30.03789062 19.45703125 30.89453125 C18.30929451 32.93234954 17.15686718 34.96735569 16 37 C12.07746783 36.40342891 9.15959164 35.19977313 5.69921875 33.27734375 C4.72275391 32.73916016 3.74628906 32.20097656 2.74023438 31.64648438 C1.73283203 31.08251953 0.72542969 30.51855469 -0.3125 29.9375 C-1.33923828 29.36966797 -2.36597656 28.80183594 -3.42382812 28.21679688 C-5.9526018 26.81715005 -8.47777036 25.41139489 -11 24 C-10.41584531 20.38606692 -9.44519602 17.57523816 -7.71484375 14.35546875 C-7.04291992 13.09379883 -7.04291992 13.09379883 -6.35742188 11.80664062 C-5.88884766 10.94232422 -5.42027344 10.07800781 -4.9375 9.1875 C-4.46505859 8.30384766 -3.99261719 7.42019531 -3.50585938 6.50976562 C-2.34296716 4.33668422 -1.17421625 2.16697716 0 0 Z " fill="#F9FAFC" transform="translate(1294,268)"/>
<path d="M0 0 C3.52583316 0.70589813 6.43919305 2.10491138 9.640625 3.72265625 C10.71054687 4.26083984 11.78046875 4.79902344 12.8828125 5.35351562 C13.99398437 5.91748047 15.10515625 6.48144531 16.25 7.0625 C17.37664063 7.63033203 18.50328125 8.19816406 19.6640625 8.78320312 C22.44454032 10.18522372 25.22308197 11.59094541 28 13 C26.83005112 16.73537897 25.54290605 20.11639699 23.6171875 23.5234375 C22.95009766 24.71259766 22.95009766 24.71259766 22.26953125 25.92578125 C21.80933594 26.73402344 21.34914063 27.54226563 20.875 28.375 C20.40707031 29.20644531 19.93914063 30.03789062 19.45703125 30.89453125 C18.30929451 32.93234954 17.15686718 34.96735569 16 37 C12.07746783 36.40342891 9.15959164 35.19977313 5.69921875 33.27734375 C4.72275391 32.73916016 3.74628906 32.20097656 2.74023438 31.64648438 C1.73283203 31.08251953 0.72542969 30.51855469 -0.3125 29.9375 C-1.33923828 29.36966797 -2.36597656 28.80183594 -3.42382812 28.21679688 C-5.9526018 26.81715005 -8.47777036 25.41139489 -11 24 C-10.41584531 20.38606692 -9.44519602 17.57523816 -7.71484375 14.35546875 C-7.04291992 13.09379883 -7.04291992 13.09379883 -6.35742188 11.80664062 C-5.88884766 10.94232422 -5.42027344 10.07800781 -4.9375 9.1875 C-4.46505859 8.30384766 -3.99261719 7.42019531 -3.50585938 6.50976562 C-2.34296716 4.33668422 -1.17421625 2.16697716 0 0 Z " fill="#F9FAFC" transform="translate(942,243)"/>
<path d="M0 0 C3.0007008 1.41518558 6.00042767 2.83242433 9 4.25 C9.83917969 4.64574219 10.67835938 5.04148437 11.54296875 5.44921875 C16.72943306 7.90173288 21.87807837 10.41532658 27 13 C26.4133247 16.75063565 25.35059992 19.559276 23.49609375 22.86328125 C22.75649414 24.19262695 22.75649414 24.19262695 22.00195312 25.54882812 C21.48568359 26.46083984 20.96941406 27.37285156 20.4375 28.3125 C19.91736328 29.24384766 19.39722656 30.17519531 18.86132812 31.13476562 C17.58023026 33.42663795 16.29297895 35.71481613 15 38 C5.90247914 33.50260575 -3.14016196 28.95550263 -12 24 C-10.42195846 18.39523177 -7.73583615 13.64949374 -4.875 8.625 C-4.17310547 7.37783203 -4.17310547 7.37783203 -3.45703125 6.10546875 C-2.30929451 4.06765046 -1.15686718 2.03264431 0 0 Z " fill="#F9FAFC" transform="translate(652,480)"/>
<path d="M0 0 C3.53438866 1.36473636 6.91654955 2.89955124 10.30078125 4.6015625 C11.27724609 5.09140625 12.25371094 5.58125 13.25976562 6.0859375 C14.26716797 6.59382813 15.27457031 7.10171875 16.3125 7.625 C17.33923828 8.140625 18.36597656 8.65625 19.42382812 9.1875 C21.95013349 10.45652781 24.47548382 11.72741766 27 13 C26.29188836 16.9166914 25.2205842 19.77608352 23.25 23.25 C22.71632813 24.20003906 22.18265625 25.15007812 21.6328125 26.12890625 C21.09398437 27.07636719 20.55515625 28.02382813 20 29 C19.04010844 30.72830215 18.0816198 32.45738477 17.125 34.1875 C16.4171122 35.45858156 15.70896103 36.72951673 15 38 C5.90247914 33.50260575 -3.14016196 28.95550263 -12 24 C-10.44651947 18.67741916 -8.05642112 14.04057184 -5.4375 9.1875 C-4.8197168 8.02444336 -4.8197168 8.02444336 -4.18945312 6.83789062 C-1.14773261 1.14773261 -1.14773261 1.14773261 0 0 Z " fill="#F9FAFC" transform="translate(690,465)"/>
<path d="M0 0 C3.98792946 1.25422685 7.66949404 2.71515581 11.3984375 4.6015625 C12.37167969 5.09140625 13.34492187 5.58125 14.34765625 6.0859375 C15.34667969 6.59382813 16.34570312 7.10171875 17.375 7.625 C18.39722656 8.140625 19.41945313 8.65625 20.47265625 9.1875 C22.98362669 10.45471873 25.49264561 11.72564556 28 13 C26.42195846 18.60476823 23.73583615 23.35050626 20.875 28.375 C20.40707031 29.20644531 19.93914062 30.03789062 19.45703125 30.89453125 C18.30929451 32.93234954 17.15686718 34.96735569 16 37 C12.07746783 36.40342891 9.15959164 35.19977313 5.69921875 33.27734375 C4.72275391 32.73916016 3.74628906 32.20097656 2.74023438 31.64648438 C1.73283203 31.08251953 0.72542969 30.51855469 -0.3125 29.9375 C-1.33923828 29.36966797 -2.36597656 28.80183594 -3.42382812 28.21679688 C-5.9526018 26.81715005 -8.47777036 25.41139489 -11 24 C-10.41584531 20.38606692 -9.44519602 17.57523816 -7.71484375 14.35546875 C-7.04291992 13.09379883 -7.04291992 13.09379883 -6.35742188 11.80664062 C-5.88884766 10.94232422 -5.42027344 10.07800781 -4.9375 9.1875 C-4.46505859 8.30384766 -3.99261719 7.42019531 -3.50585938 6.50976562 C-2.34296716 4.33668422 -1.17421625 2.16697716 0 0 Z " fill="#FAFAFC" transform="translate(1256,283)"/>
<path d="M0 0 C3.83097267 0.60679709 6.84967736 1.74808147 10.30078125 3.50390625 C11.27724609 3.99697266 12.25371094 4.49003906 13.25976562 4.99804688 C14.26716797 5.51431641 15.27457031 6.03058594 16.3125 6.5625 C17.33923828 7.08263672 18.36597656 7.60277344 19.42382812 8.13867188 C21.9520146 9.42040362 24.477224 10.70766061 27 12 C27 16.17115877 25.06204485 19.19144401 23.1875 22.8125 C22.83107422 23.51181641 22.47464844 24.21113281 22.10742188 24.93164062 C21.40640553 26.30666168 20.70317232 27.68055514 19.99755859 29.05322266 C18.64525254 31.69230451 17.32114354 34.34520998 16 37 C9.94965688 35.30916337 4.63585129 32.3171076 -0.875 29.375 C-1.84953125 28.859375 -2.8240625 28.34375 -3.828125 27.8125 C-6.22093706 26.54571714 -8.61144536 25.27478682 -11 24 C-10.41584531 20.38606692 -9.44519602 17.57523816 -7.71484375 14.35546875 C-7.04291992 13.09379883 -7.04291992 13.09379883 -6.35742188 11.80664062 C-5.88884766 10.94232422 -5.42027344 10.07800781 -4.9375 9.1875 C-4.46505859 8.30384766 -3.99261719 7.42019531 -3.50585938 6.50976562 C-2.34296716 4.33668422 -1.17421625 2.16697716 0 0 Z " fill="#F9FAFC" transform="translate(2896,279)"/>
<path d="M0 0 C3.98792946 1.25422685 7.66949404 2.71515581 11.3984375 4.6015625 C12.37167969 5.09140625 13.34492187 5.58125 14.34765625 6.0859375 C15.34667969 6.59382813 16.34570312 7.10171875 17.375 7.625 C18.39722656 8.140625 19.41945313 8.65625 20.47265625 9.1875 C22.98362669 10.45471873 25.49264561 11.72564556 28 13 C26.68196508 17.40656451 24.94204143 21.06991867 22.5625 25 C20.19340984 28.92972191 18.00823292 32.87298923 16 37 C12.07746783 36.40342891 9.15959164 35.19977313 5.69921875 33.27734375 C4.72275391 32.73916016 3.74628906 32.20097656 2.74023438 31.64648438 C1.73283203 31.08251953 0.72542969 30.51855469 -0.3125 29.9375 C-1.33923828 29.36966797 -2.36597656 28.80183594 -3.42382812 28.21679688 C-5.9526018 26.81715005 -8.47777036 25.41139489 -11 24 C-10.32853826 20.80011537 -9.18987247 18.14708994 -7.71484375 15.234375 C-7.26689453 14.34492188 -6.81894531 13.45546875 -6.35742188 12.5390625 C-5.88884766 11.61867188 -5.42027344 10.69828125 -4.9375 9.75 C-4.46505859 8.81414062 -3.99261719 7.87828125 -3.50585938 6.9140625 C-2.34082522 4.60753024 -1.17209397 2.30295053 0 0 Z " fill="#FAFAFC" transform="translate(904,258)"/>
<path d="M0 0 C3.3215578 1.47691772 4.75291325 4.27467287 6.58984375 7.26953125 C6.98236328 7.89891602 7.37488281 8.52830078 7.77929688 9.17675781 C13.1632335 18.01798267 16.89753755 26.48681305 17.15234375 36.95703125 C3.57966975 36.26689528 -11.51020579 29.9975368 -20.84765625 19.95703125 C-18.03666495 10.96185909 -11.76760242 5.53476014 -3.84765625 0.95703125 C-1.84765625 -0.04296875 -1.84765625 -0.04296875 0 0 Z " fill="#052A81" transform="translate(2277.84765625,378.04296875)"/>
<path d="M0 0 C4.97799291 1.50352525 9.44686193 3.58873927 14.0625 5.9375 C14.75666016 6.28490234 15.45082031 6.63230469 16.16601562 6.99023438 C19.87018153 8.8581471 23.4739024 10.80735841 27 13 C23 21 19 29 15 37 C9.66546488 34.95185607 4.76073276 32.2920682 -0.25 29.5625 C-1.17296875 29.07201172 -2.0959375 28.58152344 -3.046875 28.07617188 C-3.9234375 27.59857422 -4.8 27.12097656 -5.703125 26.62890625 C-6.50395508 26.19650635 -7.30478516 25.76410645 -8.12988281 25.31860352 C-10 24 -10 24 -11 21 C-10.10375977 18.73168945 -10.10375977 18.73168945 -8.69140625 16.11328125 C-8.19189453 15.17548828 -7.69238281 14.23769531 -7.17773438 13.27148438 C-6.37819336 11.80678711 -6.37819336 11.80678711 -5.5625 10.3125 C-5.03333984 9.32443359 -4.50417969 8.33636719 -3.95898438 7.31835938 C-2.64820926 4.87394092 -1.3282889 2.43493283 0 0 Z " fill="#F9FAFC" transform="translate(2092,305)"/>
<path d="M0 0 C6.90303689 4.66814564 9.76350119 13.13275232 11.375 21 C11.60174732 22.41383623 11.81775446 23.82974165 12 25.25 C2.34534309 25.71342353 -6.63493136 26.10871829 -14.68359375 19.96484375 C-17.96300986 16.62968686 -18.98737232 12.95576251 -19.26953125 8.43359375 C-18.78290185 4.49119031 -16.90139233 2.89349079 -14 0.25 C-9.44941123 -2.97945009 -4.8000191 -2.46413194 0 0 Z " fill="#052A81" transform="translate(1538,391.75)"/>
<path d="M0 0 C7.24263115 3.97960828 14.28292597 11.25365566 16.6875 19.30078125 C16.790625 19.86152344 16.89375 20.42226563 17 21 C2.08003317 28.06868141 2.08003317 28.06868141 -6.26171875 25.23046875 C-11.40328914 22.91353129 -11.40328914 22.91353129 -13.19921875 20.1640625 C-14.67630286 16.17233275 -14.54762816 12.18308742 -14 8 C-10.66592061 1.56177774 -7.34726508 -1.06653848 0 0 Z " fill="#072B82" transform="translate(1370,339)"/>
<path d="M0 0 C7.41661651 3.62940808 14.00950625 11.33685976 17 19 C17 19.66 17 20.32 17 21 C9.52974482 24.90966626 3.39543113 27.62996397 -5.0078125 25.48828125 C-7.84591215 24.46110293 -9.84378054 23.16125879 -11.9375 21 C-13.91766269 15.40895241 -14.03259833 9.40939609 -11.6875 3.9375 C-8.07811383 -0.20661005 -5.30347198 -0.53933613 0 0 Z " fill="#042A81" transform="translate(931,339)"/>
<path d="M0 0 C5.34853019 4.42901211 6.52050544 12.53892108 7.4296875 19.1015625 C7.78165949 26.94846736 5.4576635 33.0352778 2 40 C0.68 40 -0.64 40 -2 40 C-2.03867188 38.20755859 -2.03867188 38.20755859 -2.078125 36.37890625 C-2.40110682 25.12763672 -2.40110682 25.12763672 -6.2578125 14.671875 C-7 13 -7 13 -6.5625 10.4375 C-6.046875 9.633125 -5.53125 8.82875 -5 8 C-4.58363281 7.31421875 -4.16726563 6.6284375 -3.73828125 5.921875 C-2.52135541 3.92737191 -1.27342493 1.95874141 0 0 Z " fill="#F4F6F9" transform="translate(1770,214)"/>
<path d="M0 0 C0 0.33 0 0.66 0 1 C-1.33901367 1.18006592 -1.33901367 1.18006592 -2.70507812 1.36376953 C-24.27324487 4.28961961 -45.64735418 7.77411509 -67 12 C-67 11.34 -67 10.68 -67 10 C-67.99 9.67 -68.98 9.34 -70 9 C-55.38693171 6.06724843 -40.78450848 3.55312699 -26 1.6875 C-25.3294458 1.6006897 -24.6588916 1.51387939 -23.96801758 1.42443848 C-15.93999343 0.39347428 -8.09566954 -0.2556195 0 0 Z " fill="#C64E26" transform="translate(1612,744)"/>
<path d="M0 0 C6.40264635 -0.12226159 12.47812631 0.28182989 18.8125 1.1875 C19.73305176 1.31552002 20.65360352 1.44354004 21.60205078 1.57543945 C34.12404976 3.37360264 46.56293309 5.69658631 59 8 C55.48974226 10.34017183 55.0762144 10.14233729 51.125 9.375 C50.05121094 9.17519531 48.97742187 8.97539063 47.87109375 8.76953125 C45.83210778 8.36420306 43.79314543 7.95875502 41.75439453 7.55224609 C39.23290699 7.0514272 36.71055907 6.55534176 34.1875 6.0625 C33.30827881 5.89057129 32.42905762 5.71864258 31.52319336 5.54150391 C21.08155494 3.55377147 10.55062095 2.25744048 0 1 C0 0.67 0 0.34 0 0 Z " fill="#CF631F" transform="translate(1728,745)"/>
<path d="M0 0 C5.06316683 -0.15639125 9.50398438 0.37233929 14.4375 1.5 C15.67371094 1.7784375 16.90992188 2.056875 18.18359375 2.34375 C19.57771484 2.66859375 19.57771484 2.66859375 21 3 C20.01 4.485 20.01 4.485 19 6 C12.73 4.35 6.46 2.7 0 1 C0 0.67 0 0.34 0 0 Z " fill="#BA342E" transform="translate(1784,754)"/>
<path d="M0 0 C-4.60759823 3.07173215 -9.62811167 3.33884119 -15.0625 2.5625 C-15.701875 2.376875 -16.34125 2.19125 -17 2 C-17 1.67 -17 1.34 -17 1 C-11.29309366 0.00749455 -5.78591511 -0.10477512 0 0 Z " fill="#C75125" transform="translate(1586,747)"/>
</svg>
