<?xml version="1.0" encoding="UTF-8"?>
<svg version="1.1" xmlns="http://www.w3.org/2000/svg" width="600" height="600">
<path d="M0 0 C198 0 396 0 600 0 C600 198 600 396 600 600 C402 600 204 600 0 600 C0 402 0 204 0 0 Z " fill="#50A9F9" transform="translate(0,0)"/>
<path d="M0 0 C0.92559398 -0.00794881 1.85118797 -0.01589762 2.80483025 -0.02408731 C5.90828646 -0.0433461 9.00992183 -0.01969371 12.11332703 0.0038147 C14.33751608 -0.001041 16.56170078 -0.00847952 18.78587341 -0.01831055 C24.8295427 -0.03714149 30.8725649 -0.0182657 36.91618371 0.00835371 C43.23988976 0.03097307 49.56356371 0.02276823 55.88729858 0.01885986 C66.51077753 0.01709321 77.13397612 0.03912558 87.75737 0.07608032 C98.67867238 0.11406124 109.59967816 0.12826249 120.52104187 0.11709595 C133.68912468 0.10367202 146.85704338 0.1102962 160.02512169 0.1353035 C165.0508639 0.14458702 170.07652549 0.1463468 175.10227394 0.14213181 C181.02441822 0.13835997 186.94618267 0.15461995 192.86824036 0.18625259 C195.04020809 0.19472688 197.2122144 0.19644704 199.38419151 0.19087219 C202.35273376 0.18440969 205.32014793 0.20263678 208.28857422 0.22705078 C209.14510615 0.21949213 210.00163808 0.21193349 210.88412553 0.20414579 C218.09162193 0.30876696 223.39190159 2.30558262 228.52226257 7.4359436 C230.44015992 9.96795597 231.95281995 12.67339394 233.47929382 15.45547485 C233.92248962 16.26089722 234.36568542 17.06631958 234.8223114 17.89614868 C235.32347473 18.81303467 235.32347473 18.81303467 235.83476257 19.7484436 C243.61261253 19.82437574 251.39036725 19.87699372 259.16850281 19.91323853 C261.81567456 19.9283448 264.46282121 19.94883091 267.10990906 19.97476196 C270.91018359 20.01106352 274.71012784 20.02815163 278.51054382 20.04141235 C279.69811783 20.05689621 280.88569183 20.07238007 282.10925293 20.08833313 C283.21016769 20.08855972 284.31108246 20.08878632 285.44535828 20.08901978 C286.41576553 20.09568161 287.38617279 20.10234344 288.38598633 20.10920715 C291.25611577 19.68636816 292.09630365 19.01822952 293.83476257 16.7484436 C294.44135091 15.51923376 295.00227089 14.26671601 295.52226257 12.9984436 C298.06318447 7.6496547 302.53094773 3.40035102 307.83476257 0.7484436 C310.78159091 0.64147311 313.70524978 0.59622337 316.6526947 0.59454346 C318.03935746 0.58797008 318.03935746 0.58797008 319.45403361 0.5812639 C322.57085412 0.56784338 325.68764633 0.56168976 328.80448914 0.55557251 C331.03147511 0.54767413 333.25845979 0.53940535 335.48544312 0.53079224 C342.81541211 0.50454249 350.14538691 0.48926209 357.47538757 0.4750061 C359.99565892 0.46964772 362.51593022 0.46427022 365.03620148 0.45887375 C375.51730433 0.43724109 385.99840703 0.41835174 396.47952652 0.40725136 C399.19998936 0.40432162 401.92045217 0.40135996 404.64091492 0.39834595 C405.3170796 0.3975999 405.99324429 0.39685385 406.68989882 0.39608519 C417.64332676 0.38343161 428.59659238 0.35020906 439.54994443 0.30854411 C450.793657 0.26612505 462.03728966 0.24296401 473.28109145 0.23733079 C479.59485755 0.23367198 485.90834854 0.22159398 492.22203827 0.18922806 C498.16134504 0.15921829 504.10020922 0.15281049 510.03957558 0.16461182 C512.22047637 0.16483314 514.40139729 0.15647971 516.58222771 0.13895798 C519.55831996 0.11634683 522.53279642 0.12452442 525.50889587 0.14044189 C526.37329985 0.12655981 527.23770382 0.11267772 528.12830186 0.09837496 C532.2921915 0.15330134 535.01517704 0.45996767 538.33950424 3.09113121 C540.83476257 5.7484436 540.83476257 5.7484436 542.08476257 8.8734436 C541.68051744 15.13924317 538.73905416 20.97338279 534.16679382 25.3421936 C532.05619733 26.80137143 530.43636043 27.7484436 527.83476257 27.7484436 C527.62851257 28.5321936 527.42226257 29.3159436 527.20976257 30.1234436 C524.80740436 36.45693344 521.7274711 43.06278274 515.83476257 46.7484436 C514.98913757 47.03074829 514.14351257 47.31305298 513.27226257 47.60391235 C510.00541121 49.1378666 509.36894895 50.8400239 507.83476257 54.0609436 C504.76158483 60.01279417 502.24627907 64.09340426 495.70976257 66.3109436 C494.95155212 66.53072876 494.19334167 66.75051392 493.41215515 66.97695923 C491.03508859 67.68848053 488.72521972 68.48119809 486.39726257 69.33828735 C485.43417175 69.69140991 484.47108093 70.04453247 483.47880554 70.40835571 C482.27627136 70.85058472 481.07373718 71.29281372 479.83476257 71.7484436 C473.53153581 74.05887635 467.22629094 76.36377764 460.92021179 78.66641235 C458.9497374 79.38661213 456.97968328 80.10796284 455.01005554 80.83047485 C435.05638636 88.14803982 435.05638636 88.14803982 425.38285828 90.96548462 C422.00213801 92.00428599 418.77126726 93.3177154 415.51445007 94.68984985 C413.46373255 95.49997296 411.37755169 96.22083614 409.28007507 96.90078735 C400.03106379 99.79817519 400.03106379 99.79817519 393.83476257 106.7484436 C387.26358868 117.26232184 379.58019367 120.33950359 368.20976257 123.8734436 C366.90588527 124.29248906 365.60249522 124.71305377 364.29960632 125.13516235 C360.48571614 126.36499648 356.66105999 127.55776798 352.83476257 128.7484436 C351.06951233 129.30809814 351.06951233 129.30809814 349.26860046 129.87905884 C343.38644323 131.72773683 337.56878055 133.36470875 331.52226257 134.5609436 C326.15247679 135.66991467 320.90785677 136.98731716 315.66288757 138.5921936 C314.60368103 138.91598999 313.54447449 139.23978638 312.45317078 139.57339478 C310.3792363 140.21727112 308.30972591 140.8756295 306.24565125 141.55044556 C300.18754232 143.43145819 295.05559292 144.4748573 288.83476257 142.7484436 C286.52226257 141.47109985 286.52226257 141.47109985 284.83476257 139.8109436 C284.1876532 139.18317017 283.54054382 138.55539673 282.87382507 137.90859985 C279.11162344 133.92297245 275.43273147 129.8831261 271.83476257 125.7484436 C271.20698914 125.0471936 270.5792157 124.3459436 269.93241882 123.6234436 C265.83476257 118.99550243 265.83476257 118.99550243 265.83476257 116.7484436 C261.08625793 119.15307941 258.32189071 122.39655067 255.02226257 126.4359436 C242.72894456 141.11704961 242.72894456 141.11704961 237.83476257 142.7484436 C230.64751938 143.32519769 224.31824813 142.65728742 217.44413757 140.54141235 C214.26601409 139.57560537 211.06434933 138.91499801 207.80741882 138.27578735 C205.83476257 137.7484436 205.83476257 137.7484436 203.99443054 136.76309204 C201.6860533 135.67857748 199.8282348 135.33411645 197.30741882 134.98672485 C189.30510888 133.62222671 181.63238668 131.14340967 173.89164734 128.74526978 C171.27765728 127.93761044 168.65910445 127.14623034 166.0398407 126.35586548 C143.24310762 119.39490992 143.24310762 119.39490992 137.45976257 112.3109436 C136.8539032 111.59035767 136.24804382 110.86977173 135.62382507 110.12734985 C133.83476257 107.7484436 133.83476257 107.7484436 132.21757507 104.72891235 C128.85054704 100.51736746 125.05940289 99.31135917 120.08476257 97.4984436 C119.21593445 97.16070923 118.34710632 96.82297485 117.45195007 96.4750061 C112.98201548 94.77025627 108.58131601 93.43885246 103.92927551 92.30276489 C100.51846375 91.40007982 97.22805766 90.20228153 93.91679382 88.9906311 C93.18516022 88.72628769 92.45352661 88.46194427 91.69972229 88.18959045 C89.34741681 87.3382415 86.99730474 86.48101809 84.64726257 85.6234436 C83.02533839 85.03496759 81.40334912 84.44667094 79.78129578 83.85855103 C70.18120983 80.37058549 60.60232332 76.83100049 51.08988953 73.10928345 C46.71876461 71.40916369 42.36598217 69.98423077 37.83476257 68.7484436 C30.81999651 66.67974584 26.00024208 65.11917696 21.83476257 58.7484436 C21.37198914 58.06910767 20.9092157 57.38977173 20.43241882 56.68984985 C16.83476257 51.25848515 16.83476257 51.25848515 16.83476257 47.7484436 C15.28788757 47.4700061 15.28788757 47.4700061 13.70976257 47.1859436 C8.92770614 45.79479991 6.49704934 42.83010515 3.83476257 38.7484436 C-0.16523743 31.16949624 -0.16523743 31.16949624 -0.16523743 27.7484436 C-1.49554993 27.4390686 -1.49554993 27.4390686 -2.85273743 27.1234436 C-7.94644868 25.00907289 -10.14641425 21.39963979 -12.97773743 16.8109436 C-14.42206007 13.08611153 -14.73164883 10.71332342 -14.16523743 6.7484436 C-10.25719853 0.41876244 -7.18733135 -0.12279877 0 0 Z " fill="#EDF6FD" transform="translate(36.16523742675781,231.25155639648438)"/>
<path d="M0 0 C80.52 0 161.04 0 244 0 C244 13.53 244 27.06 244 41 C163.48 41 82.96 41 0 41 C0 27.47 0 13.94 0 0 Z " fill="#57AEFA" transform="translate(181,256)"/>
<path d="M0 0 C1.48052856 -0.01506844 1.48052856 -0.01506844 2.9909668 -0.03044128 C4.08290344 -0.03627228 5.17484009 -0.04210327 6.29986572 -0.04811096 C8.01441956 -0.06278664 8.01441956 -0.06278664 9.76361084 -0.07775879 C13.56507182 -0.10779528 17.36649742 -0.12912098 21.16802979 -0.14796448 C23.11005657 -0.15782222 23.11005657 -0.15782222 25.09131622 -0.1678791 C30.53173267 -0.19378408 35.97213593 -0.21727392 41.41259384 -0.23237514 C49.21270904 -0.25427829 57.01213545 -0.29622983 64.81197524 -0.36581272 C70.95491337 -0.41875448 77.09757898 -0.43885736 83.24073029 -0.44757271 C85.8546915 -0.45615331 88.46863958 -0.47503474 91.08245087 -0.50431633 C94.7388051 -0.54307157 98.39335616 -0.54428504 102.04986572 -0.53639221 C103.13370544 -0.55639282 104.21754517 -0.57639343 105.33422852 -0.59700012 C112.48547827 -0.52756386 112.48547827 -0.52756386 115.1810379 1.42889214 C118.06742752 4.78826215 121.43365479 9.61921173 121.43365479 14.16062927 C80.84365479 14.16062927 40.25365479 14.16062927 -1.56634521 14.16062927 C-6.56634521 5.16062927 -6.56634521 5.16062927 -5.56634521 1.16062927 C-3.95773204 -0.4479839 -2.22714825 0.01773733 0 0 Z " fill="#59AFFA" transform="translate(34.56634521484375,237.83937072753906)"/>
<path d="M0 0 C1.13853928 -0.00394272 2.27707855 -0.00788544 3.45011902 -0.01194763 C7.21768011 -0.01866685 10.98403324 0.01052315 14.75146484 0.04077148 C17.36412318 0.04502013 19.97678528 0.04734999 22.58944702 0.0478363 C28.06548467 0.05246289 33.54117439 0.07609755 39.01708984 0.11230469 C45.3519458 0.15407914 51.6864887 0.17162199 58.02147448 0.17492443 C64.11373485 0.17817441 70.20588444 0.19326918 76.29810715 0.21491814 C78.89215829 0.22382087 81.48621785 0.23054085 84.0802803 0.23507881 C87.69819562 0.24408233 91.31577003 0.26643827 94.93359375 0.29296875 C96.55443626 0.29396576 96.55443626 0.29396576 98.20802307 0.29498291 C99.18944778 0.30495804 100.1708725 0.31493317 101.18203735 0.32521057 C102.03779673 0.32986108 102.8935561 0.33451159 103.77524757 0.33930302 C105.83740234 0.59936523 105.83740234 0.59936523 107.83740234 2.59936523 C107.19742435 7.183262 105.18855551 11.41068791 101.83740234 14.59936523 C97.9864827 15.77082865 94.25225825 15.61171937 90.25415039 15.50756836 C88.49741249 15.50932068 88.49741249 15.50932068 86.70518494 15.5111084 C82.83528934 15.5055361 78.96847801 15.44331367 75.09912109 15.38061523 C72.4157845 15.36569355 69.73261859 15.35391295 67.04927063 15.34631348 C60.7094479 15.32146962 54.37073166 15.25585235 48.03139573 15.17551756 C40.81271048 15.08602946 33.59397175 15.04209564 26.3748697 15.00195408 C11.52844922 14.91838215 -3.31700112 14.77771257 -18.16259766 14.59936523 C-14.85328473 3.09198163 -12.19731021 -0.16807823 0 0 Z " fill="#58AFFA" transform="translate(464.16259765625,237.400634765625)"/>
<path d="M0 0 C0.84691406 -0.00274933 1.69382812 -0.00549866 2.56640625 -0.0083313 C3.487099 -0.00114075 4.40779175 0.0060498 5.35638428 0.01345825 C6.33232544 0.0131662 7.3082666 0.01287415 8.31378174 0.01257324 C11.53868509 0.01396626 14.76335723 0.02952633 17.98822021 0.04519653 C20.22452671 0.04892676 22.46083484 0.05177369 24.69714355 0.05377197 C30.58262648 0.06140767 36.46801067 0.0810557 42.35345459 0.10317993 C48.35930038 0.12363967 54.36516212 0.13277397 60.37103271 0.14285278 C72.15493026 0.16430157 83.93875453 0.19843684 95.72259521 0.24050903 C95.02788331 5.62452629 93.11993268 8.84649974 90.72259521 14.24050903 C56.07259521 14.24050903 21.42259521 14.24050903 -14.27740479 14.24050903 C-13.13894325 8.54820134 -13.13894325 8.54820134 -10.96490479 5.55300903 C-10.35195557 4.68095825 -10.35195557 4.68095825 -9.72662354 3.79129028 C-6.91894266 0.78684471 -4.02647357 -0.01011677 0 0 Z " fill="#5CB1FA" transform="translate(350.27740478515625,237.75949096679688)"/>
<path d="M0 0 C12.52627054 -0.09274474 25.05245917 -0.163788 37.57900333 -0.20724869 C43.39580998 -0.22810933 49.21238144 -0.25639967 55.02905273 -0.30175781 C60.64412684 -0.34526912 66.25897493 -0.36914857 71.87420464 -0.37950897 C74.01480097 -0.38689079 76.15538515 -0.40130579 78.29588509 -0.42292023 C81.29786889 -0.45202391 84.29892285 -0.45595302 87.30102539 -0.45410156 C88.1828801 -0.46848267 89.0647348 -0.48286377 89.97331238 -0.49768066 C95.81525196 -0.45878142 99.19225453 0.63844284 104 4 C105.77734375 6.0703125 105.77734375 6.0703125 106.9375 8.125 C107.33839844 8.80820313 107.73929687 9.49140625 108.15234375 10.1953125 C109 12 109 12 109 14 C75.01 14 41.02 14 6 14 C0 2 0 2 0 0 Z " fill="#5CB0FA" transform="translate(155,238)"/>
<path d="M0 0 C39.27 0 78.54 0 119 0 C119 2.31 119 4.62 119 7 C116.30372072 7.89875976 114.26462065 8.2361825 111.46289062 8.46484375 C110.08369446 8.58001343 110.08369446 8.58001343 108.67663574 8.69750977 C107.67990845 8.77670654 106.68318115 8.85590332 105.65625 8.9375 C104.61795044 9.02249756 103.57965088 9.10749512 102.5098877 9.19506836 C100.30084637 9.37501719 98.09165279 9.55310509 95.88232422 9.72949219 C92.56827423 9.99453964 89.2548284 10.26629163 85.94140625 10.5390625 C75.29550116 11.40501268 64.65817516 12.21244082 53.98522949 12.65844727 C49.91452528 12.84006937 46.00694929 13.26932314 42 14 C36.6740861 14.48308961 31.3416464 14.76469534 26 15 C25.22930176 15.03544922 24.45860352 15.07089844 23.66455078 15.10742188 C21.35964802 15.2013626 19.05623218 15.26227217 16.75 15.3125 C16.03545654 15.342229 15.32091309 15.37195801 14.5847168 15.40258789 C11.26116315 15.44041437 9.38305046 15.2866408 6.6875 13.26953125 C5.02244297 11.03018371 3.57924723 8.82836372 2.25 6.375 C1.60804687 5.21097656 1.60804687 5.21097656 0.953125 4.0234375 C0 2 0 2 0 0 Z " fill="#5AB0FA" transform="translate(41,257)"/>
<path d="M0 0 C1.27069163 0.00138269 1.27069163 0.00138269 2.56705379 0.00279331 C3.53605618 0.00141865 4.50505856 0.00004398 5.50342464 -0.00137234 C7.11103413 0.00402058 7.11103413 0.00402058 8.75112057 0.00952244 C10.43383053 0.0093034 10.43383053 0.0093034 12.15053463 0.00907993 C15.87866266 0.00977963 19.60674144 0.01757468 23.3348608 0.02539158 C25.91175973 0.02725556 28.48865902 0.02867955 31.06555843 0.0296793 C37.16770571 0.03311441 43.26983249 0.04100523 49.37197202 0.05102879 C56.31744705 0.06219094 63.26292291 0.06770063 70.20840466 0.07272422 C84.49926422 0.08318787 98.79010875 0.10078668 113.08095455 0.12304783 C112.39148546 3.01949767 111.53379267 5.51443161 110.20595455 8.18554783 C109.71482174 9.19295017 109.71482174 9.19295017 109.21376705 10.22070408 C107.91633296 12.39949857 107.14582772 13.61208801 105.08095455 15.12304783 C102.39349646 15.42070503 99.98232409 15.51275582 97.2957983 15.45507908 C96.47248516 15.44555714 95.64917202 15.43603519 94.80091 15.42622471 C82.39551086 15.17488959 70.02599609 14.02481321 57.66756344 12.98010349 C54.33005749 12.70052711 50.99156925 12.4333808 47.65322018 12.16406345 C30.42883453 10.75572059 13.25410553 9.05444643 -3.91904545 7.12304783 C-2.88572373 0.18503055 -2.88572373 0.18503055 0 0 Z " fill="#5BB0FA" transform="translate(444.9190454483032,256.8769521713257)"/>
<path d="M0 0 C0.495 2.97 0.495 2.97 1 6 C-4.36091404 7.67732475 -9.58184324 8.61286849 -15.14453125 9.33984375 C-27.44733895 11.02471231 -39.70202794 12.98399577 -51.96069336 14.96166992 C-55.72009405 15.56775476 -59.48013036 16.16978 -63.24023438 16.77148438 C-65.66410119 17.16121778 -68.0879307 17.55118328 -70.51171875 17.94140625 C-71.61915939 18.11853653 -72.72660004 18.29566681 -73.86759949 18.47816467 C-79.57075003 19.40113956 -85.23223906 20.4116909 -90.87922668 21.63487244 C-94.2581483 22.21661185 -96.733949 22.02464345 -100 21 C-102.981899 18.018101 -105.49372676 14.97108399 -107 11 C-107 10.01 -107 9.02 -107 8 C-82.06408687 5.58390249 -57.11725567 3.49556801 -32.125 1.75 C-30.23541061 1.61712585 -30.23541061 1.61712585 -28.30764771 1.48156738 C-24.70790354 1.22948158 -21.10793361 0.9810138 -17.5078125 0.734375 C-16.43149063 0.65956909 -15.35516876 0.58476318 -14.24623108 0.50769043 C-9.48831696 0.18748283 -4.77218302 -0.09603622 0 0 Z " fill="#55ADFA" transform="translate(166,269)"/>
<path d="M0 0 C8.99499021 -0.14352368 17.74911847 0.21104886 26.6875 1.1875 C29.34864465 1.46206391 32.00991139 1.73364094 34.671875 2 C35.42154037 2.07514328 36.17120575 2.15028656 36.94358826 2.22770691 C49.41263232 3.45693968 61.90286877 4.46651429 74.38815689 5.51532364 C76.44249579 5.68791972 78.49680964 5.8608112 80.55111694 6.03378296 C88.36719708 6.69175343 96.18348307 7.34723884 104 8 C103.32818512 11.7531644 102.53349858 14.16609985 100.25 17.25 C99.76015625 17.93578125 99.2703125 18.6215625 98.765625 19.328125 C96.51059318 21.46342062 95.05836595 21.60091692 92 22 C89.55004883 21.79203796 89.55004883 21.79203796 86.95703125 21.3190918 C85.97831055 21.14528488 84.99958984 20.97147797 83.99121094 20.79240417 C82.94223633 20.59665298 81.89326172 20.40090179 80.8125 20.19921875 C79.7184082 20.00278275 78.62431641 19.80634674 77.49707031 19.60395813 C73.99642862 18.9737299 70.49821542 18.33104644 67 17.6875 C63.52992314 17.05725823 60.05938901 16.42961194 56.58862305 15.80317688 C54.43203008 15.41304842 52.27590537 15.02031843 50.12036133 14.62443542 C42.76561983 13.28186753 35.39364877 12.10699797 28 11 C26.74630615 10.80913818 25.4926123 10.61827637 24.20092773 10.42163086 C22.70734741 10.19552124 22.70734741 10.19552124 21.18359375 9.96484375 C18.93489583 9.62239583 16.68619792 9.27994792 14.4375 8.9375 C12.71563477 8.67743164 12.71563477 8.67743164 10.95898438 8.41210938 C9.30672852 8.15977539 9.30672852 8.15977539 7.62109375 7.90234375 C6.6355249 7.75273193 5.64995605 7.60312012 4.63452148 7.44897461 C2.38191671 7.06508617 0.20513592 6.59332622 -2 6 C-1.34 4.02 -0.68 2.04 0 0 Z " fill="#57AEFA" transform="translate(437,269)"/>
<path d="M0 0 C0.99 2.97 0.99 2.97 2 6 C-3.53377131 8.58292718 -8.99966188 10.11910741 -14.9375 11.5 C-22.12992996 13.17835868 -22.12992996 13.17835868 -29.109375 15.5625 C-33.11534973 17.13532402 -37.07085024 17.85652689 -41.3125 18.5 C-52.45530316 19.56973508 -52.45530316 19.56973508 -62 24 C-67.42727489 24.42566862 -70.23850491 23.42566731 -75 21 C-76.99080038 20.46454334 -78.99224716 19.96789801 -81 19.5 C-85.41753922 18.46154862 -89.08825021 17.28185404 -93 15 C-93 14.67 -93 14.34 -93 14 C-75.75176966 10.62598619 -58.46094822 7.75788975 -41.08374023 5.14404297 C-40.29717545 5.02553986 -39.51061066 4.90703674 -38.70021057 4.78494263 C-37.13397446 4.54921087 -35.56759948 4.31439979 -34.00108337 4.08053589 C-30.03508255 3.48293036 -26.07944453 2.84905709 -22.12939453 2.15332031 C-21.33231583 2.0141922 -20.53523712 1.87506409 -19.71400452 1.73171997 C-18.21722676 1.46801135 -16.72151722 1.19812054 -15.22727966 0.92037964 C-10.09240802 0.01734854 -5.21431888 -0.10821144 0 0 Z " fill="#59AFFA" transform="translate(172,280)"/>
<path d="M0 0 C8.57481131 0.50984661 16.87648445 1.52254518 25.30859375 3.14453125 C26.43660904 3.35559006 27.56462433 3.56664886 28.7268219 3.78410339 C32.29830316 4.45375902 35.86791413 5.13282136 39.4375 5.8125 C41.79349718 6.25651048 44.14961634 6.6998742 46.50585938 7.14257812 C49.98214114 7.79593955 53.4583014 8.44988918 56.93392944 9.10671997 C67.61310599 11.12403525 78.30428281 13.07255608 89 15 C82.71867461 21.28132539 71.1794967 23.73834919 62.59765625 24.171875 C50.40722035 23.58948718 38.42768246 18.93166265 26.98608398 15.00732422 C19.84169296 12.56738583 12.67186731 10.4102001 5.35571289 8.54711914 C0.20230079 7.20230079 0.20230079 7.20230079 -2 5 C-1.34 3.35 -0.68 1.7 0 0 Z " fill="#59AFFA" transform="translate(432,279)"/>
<path d="M0 0 C0.495 5.94 0.495 5.94 1 12 C-3.70811423 13.86659602 -8.42202478 15.71740505 -13.1418457 17.55419922 C-14.74474817 18.18048708 -16.34601935 18.81096752 -17.94555664 19.44580078 C-20.25244949 20.36051647 -22.56489685 21.2597151 -24.87890625 22.15625 C-25.58648575 22.44060913 -26.29406525 22.72496826 -27.02308655 23.01794434 C-33.41593961 25.46417054 -38.7991231 25.8251933 -45.27734375 23.25 C-46.20224609 22.8890625 -47.12714844 22.528125 -48.08007812 22.15625 C-49.02302734 21.7746875 -49.96597656 21.393125 -50.9375 21 C-51.90751953 20.6184375 -52.87753906 20.236875 -53.87695312 19.84375 C-56.25569517 18.90631471 -58.62957812 17.95823532 -61 17 C-55.93158249 11.46135596 -46.69770453 10.15387252 -39.4375 9.375 C-36.15320987 9.0167138 -34.02475604 8.22859345 -31 7 C-29.37347159 6.55950928 -27.73718008 6.15376082 -26.09375 5.78125 C-25.18496094 5.57113281 -24.27617187 5.36101562 -23.33984375 5.14453125 C-21.44661458 4.71484375 -19.55338542 4.28515625 -17.66015625 3.85546875 C-16.75136719 3.64535156 -15.84257812 3.43523437 -14.90625 3.21875 C-14.08447266 3.03248047 -13.26269531 2.84621094 -12.41601562 2.65429688 C-9.94604545 2.04692863 -9.94604545 2.04692863 -7.50585938 0.92382812 C-5 0 -5 0 0 0 Z " fill="#56ADFA" transform="translate(177,291)"/>
<path d="M0 0 C2.97 0 5.94 0 9 0 C11.20014541 8.40626987 13.02208596 16.83601963 14.625 25.375 C14.8415625 26.51066406 15.058125 27.64632813 15.28125 28.81640625 C16.24104316 33.87013197 17.16726073 38.92358377 18 44 C16.741875 44.04125 15.48375 44.0825 14.1875 44.125 C13.47980469 44.14820313 12.77210938 44.17140625 12.04296875 44.1953125 C10 44 10 44 7 42 C3.95804573 41.66659529 3.95804573 41.66659529 1 42 C0.34 42.66 -0.32 43.32 -1 44 C-3.68839385 44.26991906 -6.29141936 44.08737357 -9 44 C-7.17119976 34.7821079 -5.27289849 25.57884915 -3.375 16.375 C-3.04684855 14.78255753 -2.71872334 13.19010966 -2.390625 11.59765625 C-1.59405246 7.73170843 -0.79712514 3.86583391 0 0 Z " fill="#56ADFA" transform="translate(296,301)"/>
<path d="M0 0 C6.53022046 1.38279238 12.90853847 3.0606083 19.3125 4.9375 C24.95905595 6.57514363 30.59295794 8.1954666 36.3125 9.5625 C43.65224617 11.33085684 50.81548157 13.69329548 58 16 C54.55748213 19.44251787 49.76130357 20.5304635 45.25 22.1875 C44.26 22.56841797 43.27 22.94933594 42.25 23.34179688 C40.80367188 23.87450195 40.80367188 23.87450195 39.328125 24.41796875 C38.4505957 24.74563232 37.57306641 25.0732959 36.66894531 25.41088867 C31.0000072 26.66218282 26.25989785 24.45880662 21.0703125 22.27734375 C20.11751907 21.87993736 20.11751907 21.87993736 19.14547729 21.47450256 C17.13609166 20.63479557 15.13055157 19.78631766 13.125 18.9375 C11.75545374 18.36334656 10.38566425 17.78977294 9.015625 17.21679688 C5.67424443 15.81789155 2.33625171 14.41110057 -1 13 C-0.67 8.71 -0.34 4.42 0 0 Z " fill="#57ADF9" transform="translate(429,290)"/>
<path d="M0 0 C4.17238833 0.9241004 7.80462083 2.29024364 11.703125 4.00195312 C12.42568985 4.31128281 13.1482547 4.62061249 13.89271545 4.9393158 C16.17804582 5.9197908 18.45814468 6.91181219 20.73828125 7.90429688 C22.29589169 8.57499094 23.8538315 9.24492061 25.41210938 9.9140625 C29.21219902 11.5478267 33.00764436 13.19195845 36.80078125 14.84179688 C35.80078125 16.84179688 35.80078125 16.84179688 33.140625 17.77148438 C32.01785156 18.0834375 30.89507812 18.39539063 29.73828125 18.71679688 C21.14566573 21.04389938 21.14566573 21.04389938 13.80078125 25.84179688 C7.15370526 25.58557699 3.02952716 23.66964231 -2.44921875 20.02929688 C-3.14273437 19.59037109 -3.83625 19.15144531 -4.55078125 18.69921875 C-8.15552579 16.37547059 -11.30205408 14.04510524 -14.19921875 10.84179688 C-12.53508025 8.96098935 -10.84825879 7.11612612 -9.13671875 5.27929688 C-8.67072266 4.74626953 -8.20472656 4.21324219 -7.72460938 3.6640625 C-5.10198723 0.89871262 -3.87588581 -0.19166468 0 0 Z " fill="#56ADF9" transform="translate(416.19921875,303.158203125)"/>
<path d="M0 0 C2.05034786 1.65570126 3.78293847 3.37513453 5.515625 5.36328125 C6.12921875 6.05292969 6.7428125 6.74257813 7.375 7.453125 C8.765625 9.42578125 8.765625 9.42578125 8.765625 12.42578125 C2.12824725 18.61367518 -8.23673965 24.74838335 -17.3125 25.7734375 C-20.71674758 25.36838665 -22.36065497 24.25997924 -25.234375 22.42578125 C-27.79810118 21.40294027 -30.4162782 20.57151335 -33.046875 19.73828125 C-33.73974609 19.51333984 -34.43261719 19.28839844 -35.14648438 19.05664062 C-36.84066582 18.50749216 -38.53728133 17.96586263 -40.234375 17.42578125 C-39.234375 14.42578125 -39.234375 14.42578125 -37.5546875 13.46191406 C-36.46800781 13.0495752 -36.46800781 13.0495752 -35.359375 12.62890625 C-34.54662109 12.3129248 -33.73386719 11.99694336 -32.89648438 11.67138672 C-32.01798828 11.34283691 -31.13949219 11.01428711 -30.234375 10.67578125 C-28.41090675 9.97669744 -26.58799946 9.2761489 -24.765625 8.57421875 C-23.84265625 8.22069336 -22.9196875 7.86716797 -21.96875 7.50292969 C-19.37420105 6.48086273 -16.81871598 5.39843894 -14.265625 4.27734375 C-13.49992187 3.94444336 -12.73421875 3.61154297 -11.9453125 3.26855469 C-10.49753391 2.63483182 -9.05454342 1.99002798 -7.6171875 1.33300781 C-2.83658326 -0.72898206 -2.83658326 -0.72898206 0 0 Z " fill="#56ADFA" transform="translate(190.234375,303.57421875)"/>
<path d="M0 0 C2.90904352 1.17769342 5.20412132 2.68744938 7.734375 4.54296875 C8.61738281 5.18363281 9.50039062 5.82429688 10.41015625 6.484375 C11.07402344 6.97808594 11.73789063 7.47179687 12.421875 7.98046875 C-3.65381704 27.35373865 -3.65381704 27.35373865 -12.015625 28.41796875 C-19.77356647 27.4652391 -23.35585456 24.64719029 -28.390625 18.91796875 C-28.7825 18.27859375 -29.174375 17.63921875 -29.578125 16.98046875 C-29.083125 15.49546875 -29.083125 15.49546875 -28.578125 13.98046875 C-26.34765625 12.91015625 -26.34765625 12.91015625 -23.390625 11.85546875 C-17.46022806 9.55708525 -12.51507375 6.54311901 -7.38793945 2.83935547 C-4.84072523 1.07609868 -3.14542587 -0.02382898 0 0 Z " fill="#56ADFA" transform="translate(204.578125,319.01953125)"/>
<path d="M0 0 C3.63 0 7.26 0 11 0 C11.43570312 1.14855469 11.87140625 2.29710937 12.3203125 3.48046875 C15.89569667 12.83201734 19.70460365 21.95363496 24 31 C27 37.48496241 27 37.48496241 27 41 C25.33524314 41.34274406 23.66804677 41.67364302 22 42 C21.071875 42.185625 20.14375 42.37125 19.1875 42.5625 C15.40544113 43.08160612 11.81729772 43.02746257 8 43 C7.01599833 38.32378793 6.03762445 33.64644479 5.06420898 28.96801758 C4.7330314 27.3801379 4.40037904 25.792565 4.06616211 24.20532227 C0.64976391 7.97104742 0.64976391 7.97104742 0 0 Z " fill="#55ADFA" transform="translate(310,301)"/>
<path d="M0 0 C2.2762943 1.17592797 4.21749062 2.54478328 6.2578125 4.09765625 C12.40892269 8.54524042 19.04783505 11.7324436 25.8828125 14.97265625 C23.81387604 20.37538116 21.91129433 23.85897995 16.6953125 26.72265625 C12.49220904 28.25399791 8.38245209 29.47431938 3.8828125 28.97265625 C0.72206487 27.08131341 -1.55107197 24.58009832 -3.9921875 21.84765625 C-4.641875 21.16960937 -5.2915625 20.4915625 -5.9609375 19.79296875 C-9.15033522 16.40669463 -11.93936997 13.11857555 -14.1171875 8.97265625 C-12.21169154 7.43567602 -10.29495157 5.91874371 -8.3671875 4.41015625 C-7.82835937 3.97251953 -7.28953125 3.53488281 -6.734375 3.08398438 C-2.70676411 -0.03495821 -2.70676411 -0.03495821 0 0 Z " fill="#55ADFA" transform="translate(399.1171875,318.02734375)"/>
<path d="M0 0 C1.37478516 0.01740234 1.37478516 0.01740234 2.77734375 0.03515625 C3.69644531 0.04417969 4.61554688 0.05320312 5.5625 0.0625 C6.27277344 0.07410156 6.98304688 0.08570313 7.71484375 0.09765625 C7.00049791 8.94145895 5.03206933 17.50861062 3.15234375 26.16015625 C2.81925507 27.70889703 2.48656937 29.25772453 2.15429688 30.80664062 C1.34579064 34.57132895 0.53183201 38.33479994 -0.28515625 42.09765625 C-2.03116286 42.12482851 -3.77729301 42.14413001 -5.5234375 42.16015625 C-6.49579346 42.17175781 -7.46814941 42.18335938 -8.4699707 42.1953125 C-12.0678717 42.07050456 -14.90748136 41.29860732 -18.28515625 40.09765625 C-17.65291626 36.34500598 -16.58323605 33.09766302 -15.09765625 29.59765625 C-14.65292969 28.54964844 -14.20820313 27.50164062 -13.75 26.421875 C-12.26862096 23.06013216 -10.72304183 19.73469839 -9.16015625 16.41015625 C-6.80521329 11.37941691 -4.96033659 6.38769941 -3.28515625 1.09765625 C-2.28515625 0.09765625 -2.28515625 0.09765625 0 0 Z " fill="#55ADFA" transform="translate(283.28515625,301.90234375)"/>
<path d="M0 0 C1.69391758 0.17554731 3.38616137 0.38739598 5.0625 0.6875 C4.5401963 5.944018 3.26746076 9.89716483 0.9375 14.625 C0.30535647 15.92744795 -0.32478091 17.23087108 -0.953125 18.53515625 C-1.27861328 19.20820801 -1.60410156 19.88125977 -1.93945312 20.57470703 C-3.97777948 24.88969635 -5.83758077 29.28496425 -7.71533203 33.67163086 C-9.83511677 38.58511677 -9.83511677 38.58511677 -10.9375 39.6875 C-16.60625172 39.29655161 -20.82652756 38.13650763 -25.9375 35.6875 C-25.29576651 32.47837872 -24.15387142 30.10033875 -22.4609375 27.30859375 C-21.70768188 26.0570752 -21.70768188 26.0570752 -20.93920898 24.78027344 C-19.84382016 22.99227271 -18.74694832 21.20517978 -17.64868164 19.41894531 C-17.10332764 18.53174805 -16.55797363 17.64455078 -15.99609375 16.73046875 C-15.4635498 15.86470215 -14.93100586 14.99893555 -14.38232422 14.10693359 C-13.16813399 12.07370866 -12.04541373 10.03543965 -10.97265625 7.92578125 C-8.01428174 2.39239127 -6.54909863 0.07498968 0 0 Z " fill="#58AFFA" transform="translate(270.9375,300.3125)"/>
<path d="M0 0 C4.38360343 -1.23934338 7.65179408 -1.47294214 12 0 C16.26947162 4.37766486 18.87587142 10.21454344 21.68310547 15.58349609 C23.98081 19.79978817 26.71975348 23.72399076 29.44799805 27.67041016 C30.515625 29.27734375 30.515625 29.27734375 32 32 C31.67 32.99 31.34 33.98 31 35 C28.3828125 36.16796875 28.3828125 36.16796875 25.125 37.1875 C24.05507813 37.53167969 22.98515625 37.87585938 21.8828125 38.23046875 C19 39 19 39 16 39 C15.5875 37.98164063 15.175 36.96328125 14.75 35.9140625 C11.18576046 27.16424072 7.49750356 18.48851878 3.578125 9.89111328 C3.25585938 9.17810059 2.93359375 8.46508789 2.6015625 7.73046875 C2.31619629 7.10551514 2.03083008 6.48056152 1.73681641 5.83666992 C0.9657473 3.91461793 0.45670377 2.01780537 0 0 Z " fill="#59AFFA" transform="translate(325,301)"/>
<path d="M0 0 C4.95 2.31 9.9 4.62 15 7 C13.89095126 11.43619496 11.8873601 14.11922855 9.125 17.625 C8.67769531 18.21023438 8.23039062 18.79546875 7.76953125 19.3984375 C5.65555218 22.11730144 3.88848201 24.07434533 1 26 C-6.24759742 25.64843744 -13.3209388 22.61575401 -20 20 C-14.36878657 12.92076026 -7.68059419 7.05936583 -1 1 C-0.67 0.67 -0.34 0.34 0 0 Z " fill="#55ACF9" transform="translate(221,330)"/>
<path d="M0 0 C1.22265625 1.78515625 1.22265625 1.78515625 2.0625 4.0625 C3.32440769 7.28680292 4.64712678 10.36673235 6.25 13.4375 C8 17 8 17 8 19 C-6.7804266 23.97867001 -6.7804266 23.97867001 -12 23 C-14.8125 20.625 -14.8125 20.625 -17 18 C-17.66 17.34 -18.32 16.68 -19 16 C-19.6328125 14.01171875 -19.6328125 14.01171875 -20.125 11.6875 C-20.29257812 10.92824219 -20.46015625 10.16898437 -20.6328125 9.38671875 C-21.0172239 6.88804468 -21.06254333 4.52407 -21 2 C-18.43944242 1.46742809 -15.87733671 0.94868156 -13.3125 0.4375 C-12.2306543 0.21030273 -12.2306543 0.21030273 -11.12695312 -0.02148438 C-3.69957169 -1.47982868 -3.69957169 -1.47982868 0 0 Z " fill="#5CB0FA" transform="translate(340,346)"/>
<path d="M0 0 C1.13695312 0.08121094 2.27390625 0.16242188 3.4453125 0.24609375 C4.59773438 0.30925781 5.75015625 0.37242187 6.9375 0.4375 C7.80632812 0.51871094 8.67515625 0.59992188 9.5703125 0.68359375 C4.22783756 11.66385631 -2.32653378 21.7852175 -9.4296875 31.68359375 C-13.61350577 31.15606884 -16.67669269 30.26490886 -20.3046875 28.12109375 C-21.08585938 27.66605469 -21.86703125 27.21101563 -22.671875 26.7421875 C-23.25195312 26.39285156 -23.83203125 26.04351562 -24.4296875 25.68359375 C-23.13427421 22.85189406 -21.74566681 20.72898657 -19.6015625 18.4765625 C-19.04855469 17.88939453 -18.49554688 17.30222656 -17.92578125 16.69726562 C-17.34957031 16.09462891 -16.77335938 15.49199219 -16.1796875 14.87109375 C-15.04810789 13.67838283 -13.91789507 12.48437366 -12.7890625 11.2890625 C-12.22654785 10.70116943 -11.6640332 10.11327637 -11.08447266 9.50756836 C-9.39768882 7.70083751 -9.39768882 7.70083751 -7.91162109 5.68969727 C-4.20162391 0.83745351 -4.20162391 0.83745351 0 0 Z " fill="#57AEFA" transform="translate(249.4296875,301.31640625)"/>
<path d="M0 0 C4.93386321 -0.93106773 10.30148169 -1.84160939 14.68066406 1.14697266 C18.06087183 4.22856462 20.8999178 7.760471 23.70458984 11.36279297 C25.42221883 13.53362221 27.30128273 15.53798574 29.1875 17.5625 C31.41648259 19.99756857 32.40733017 21.73674561 33 25 C31.09392715 26.06092734 29.17467254 27.09820101 27.25 28.125 C26.18265625 28.70507812 25.1153125 29.28515625 24.015625 29.8828125 C21 31 21 31 18.8046875 30.46875 C16.57105904 28.65090519 15.36130723 26.84719946 13.875 24.375 C12.98748047 22.91900391 12.98748047 22.91900391 12.08203125 21.43359375 C11.7567041 20.89331543 11.43137695 20.35303711 11.09619141 19.79638672 C9.86353393 17.77636585 8.59660722 15.7803802 7.32421875 13.78515625 C6.40364292 12.33593935 5.48306999 10.88672061 4.5625 9.4375 C4.11310059 8.7347998 3.66370117 8.03209961 3.20068359 7.30810547 C0 2.22598088 0 2.22598088 0 0 Z " fill="#57AEFA" transform="translate(343,302)"/>
<path d="M0 0 C1.821374 1.4611467 3.50198057 2.92471364 5.1328125 4.59765625 C5.73351562 5.21382813 6.33421875 5.83 6.953125 6.46484375 C9.19373005 8.8800414 11.3179303 11.37580647 13.3984375 13.9296875 C14.88551989 15.66697616 14.88551989 15.66697616 17.7578125 17.41015625 C17.7578125 18.07015625 17.7578125 18.73015625 17.7578125 19.41015625 C14.87132443 20.47909316 11.97269953 21.51025782 9.0703125 22.53515625 C7.84538086 22.98955078 7.84538086 22.98955078 6.59570312 23.453125 C0.62512644 25.53194927 0.62512644 25.53194927 -2.99609375 25.0234375 C-6.25969009 22.67932396 -8.25924293 19.7786176 -10.4921875 16.47265625 C-10.93820312 15.83908203 -11.38421875 15.20550781 -11.84375 14.55273438 C-13.70557535 11.87001331 -15.20469257 9.52264103 -16.2421875 6.41015625 C-14.00119181 5.181803 -11.7520497 3.9778613 -9.4921875 2.78515625 C-8.54085938 2.25921875 -8.54085938 2.25921875 -7.5703125 1.72265625 C-2.83226963 -0.74507441 -2.83226963 -0.74507441 0 0 Z " fill="#56ADFA" transform="translate(381.2421875,330.58984375)"/>
<path d="M0 0 C6.27 0.66 12.54 1.32 19 2 C16.87431694 16.87978142 16.87431694 16.87978142 14 20.5625 C7.57011825 23.64348501 0.47857197 22.12125294 -6.28515625 20.73046875 C-6.85105469 20.48941406 -7.41695312 20.24835938 -8 20 C-9 17 -9 17 -8.28735352 15.09887695 C-7.71392212 14.05413208 -7.71392212 14.05413208 -7.12890625 12.98828125 C-6.57698608 11.96408081 -6.57698608 11.96408081 -6.01391602 10.91918945 C-5.53494873 10.05898193 -5.05598145 9.19877441 -4.5625 8.3125 C-3.056875 5.569375 -1.55125 2.82625 0 0 Z " fill="#58AEFA" transform="translate(262,346)"/>
<path d="M0 0 C4.0480184 0.61861409 7.93290011 1.45678905 11.875 2.5625 C13.32519531 2.96662109 13.32519531 2.96662109 14.8046875 3.37890625 C15.52914062 3.58386719 16.25359375 3.78882813 17 4 C16.68021782 11.3549901 13.19766723 17.80233277 8 23 C0.52097845 22.75874124 -6.00731202 20.54387126 -13 18 C-12.64808594 17.53851563 -12.29617187 17.07703125 -11.93359375 16.6015625 C-7.81655641 11.16234345 -3.88391248 5.60754228 0 0 Z " fill="#58AEF9" transform="translate(240,340)"/>
<path d="M0 0 C1.68359375 2.328125 1.68359375 2.328125 3.4375 5.25 C5.24645379 8.2446886 7.01357608 11.01670168 9.22265625 13.734375 C11 16 11 16 11 18 C8.27598126 18.89499182 5.54790316 19.76613261 2.8125 20.625 C2.04357422 20.88023437 1.27464844 21.13546875 0.48242188 21.3984375 C-2.9377355 22.45531017 -5.28736985 23.13196855 -8.84765625 22.47265625 C-11.60145948 20.58847509 -12.70412854 18.76186002 -14.25 15.8125 C-14.75015625 14.89082031 -15.2503125 13.96914063 -15.765625 13.01953125 C-17.13688321 9.66515594 -17.62416853 6.59276992 -18 3 C-15.565036 2.30215669 -13.12772895 1.61646178 -10.6875 0.9375 C-9.65206055 0.63875977 -9.65206055 0.63875977 -8.59570312 0.33398438 C-3.33984375 -1.11328125 -3.33984375 -1.11328125 0 0 Z " fill="#59AFFA" transform="translate(362,340)"/>
<path d="M0 0 C15.34596859 -1.61915261 15.34596859 -1.61915261 20.4375 2.12109375 C23.12332062 4.63540137 25.56098068 7.24906347 28 10 C28.75667969 10.56074219 29.51335937 11.12148438 30.29296875 11.69921875 C30.85628906 12.12847656 31.41960937 12.55773437 32 13 C32 13.66 32 14.32 32 15 C30.217871 16.44074715 28.37339724 17.80510649 26.5 19.125 C25.4790625 19.84945313 24.458125 20.57390625 23.40625 21.3203125 C22.6121875 21.87460937 21.818125 22.42890625 21 23 C16.64801058 21.37191763 14.08293744 18.12112494 11.0625 14.75 C10.55009766 14.18925781 10.03769531 13.62851562 9.50976562 13.05078125 C7.99137399 11.37997165 6.49157664 9.6947712 5 8 C4.50741699 7.44248047 4.01483398 6.88496094 3.50732422 6.31054688 C0 2.24358269 0 2.24358269 0 0 Z " fill="#5BB0FA" transform="translate(362,301)"/>
<path d="M0 0 C-1.68416107 4.03804701 -4.47889467 7.10863954 -7.3125 10.375 C-8.26713899 11.48679725 -9.22156717 12.59877554 -10.17578125 13.7109375 C-10.64193848 14.25202148 -11.1080957 14.79310547 -11.58837891 15.35058594 C-13.75198353 17.87865803 -15.87589411 20.43869198 -18 23 C-21.32800516 22.37787291 -23.52550691 21.18041624 -26.25 19.1875 C-27.30960938 18.43533203 -27.30960938 18.43533203 -28.390625 17.66796875 C-30 16 -30 16 -30 12 C-21.23926394 1.43236212 -13.4793442 -1.89060932 0 0 Z " fill="#5DB1FA" transform="translate(240,301)"/>
<path d="M0 0 C2.9375 2.0625 2.9375 2.0625 5 5 C5 8.54361243 4.65850044 10.86591591 2.875 13.9375 C-0.18452459 15.6712306 -2.56817525 15.42145216 -6 15 C-8.4375 13.4375 -8.4375 13.4375 -10 11 C-10.56783945 7.02512383 -10.62340519 4.93510779 -8.375 1.5625 C-5.24316508 -0.49791771 -3.68455227 -0.6767545 0 0 Z " fill="#DAEDFD" transform="translate(401,271)"/>
<path d="M0 0 C0.99 0.66 1.98 1.32 3 2 C3.76502732 8.77595628 3.76502732 8.77595628 1.4375 12.5 C-1.91034349 14.56021138 -4.14014247 14.49125459 -8 14 C-10.15551966 12.40461538 -10.89553419 11.48054273 -11.46875 8.84375 C-11.50036811 6.47239155 -11.4589511 4.32939332 -11 2 C-7.47859634 -1.52140366 -4.62530689 -1.30715195 0 0 Z " fill="#E3F1FD" transform="translate(386,272)"/>
<path d="M0 0 C7.10583942 -0.60218978 7.10583942 -0.60218978 11.0625 2.0625 C13 5 13 5 13.0625 8.625 C12 12 12 12 10.4375 13.9375 C6.8556202 15.49883222 3.89006898 15.19450345 0 15 C0 10.05 0 5.1 0 0 Z " fill="#E7F3FD" transform="translate(408,271)"/>
<path d="M0 0 C6.93 0 13.86 0 21 0 C21 0.66 21 1.32 21 2 C19.42578125 3.40234375 19.42578125 3.40234375 17.3125 4.9375 C16.58675781 5.46472656 15.86101562 5.99195313 15.11328125 6.53515625 C12.802058 8.13720564 10.45122456 9.62118619 8 11 C6.88625 9.8553125 6.88625 9.8553125 5.75 8.6875 C3.5736677 6.5606298 1.47832204 4.7440044 -1 3 C-0.67 2.01 -0.34 1.02 0 0 Z " fill="#67B6FB" transform="translate(196,301)"/>
<path d="M0 0 C1.32 0 2.64 0 4 0 C4 1.98 4 3.96 4 6 C5.65 6 7.3 6 9 6 C9 4.35 9 2.7 9 1 C10.32 0.67 11.64 0.34 13 0 C13 4.95 13 9.9 13 15 C11.68 15 10.36 15 9 15 C9 13.02 9 11.04 9 9 C7.35 9 5.7 9 4 9 C4 10.98 4 12.96 4 15 C2.68 15 1.36 15 0 15 C0 10.05 0 5.1 0 0 Z " fill="#BDDFFC" transform="translate(282,271)"/>
<path d="M0 0 C7.26 0 14.52 0 22 0 C20.43386305 3.13227391 19.44193426 4.89352459 17.125 7.3125 C16.63257813 7.84488281 16.14015625 8.37726563 15.6328125 8.92578125 C14 10 14 10 12.1328125 9.8828125 C9.4027298 8.75277827 7.16641918 7.26176553 4.75 5.5625 C3.85796875 4.94503906 2.9659375 4.32757813 2.046875 3.69140625 C1.37140625 3.13324219 0.6959375 2.57507813 0 2 C0 1.34 0 0.68 0 0 Z " fill="#6CB9FB" transform="translate(386,301)"/>
<path d="M0 0 C0.99 0 1.98 0 3 0 C3 4.95 3 9.9 3 15 C-1.0084034 12.9957983 -2.41409657 11.50944037 -5 8 C-5.33 10.31 -5.66 12.62 -6 15 C-6.99 15 -7.98 15 -9 15 C-9 10.38 -9 5.76 -9 1 C-4.40962044 2.14759489 -3.66330818 3.29039218 -1 7 C-0.67 4.69 -0.34 2.38 0 0 Z " fill="#CCE6FC" transform="translate(196,271)"/>
<path d="M0 0 C0.99 0 1.98 0 3 0 C4.60546875 1.75 4.60546875 1.75 6.1875 4 C6.71730469 4.7425 7.24710937 5.485 7.79296875 6.25 C8.19128906 6.8275 8.58960938 7.405 9 8 C9.33 5.69 9.66 3.38 10 1 C10.66 1 11.32 1 12 1 C12 5.62 12 10.24 12 15 C11.34 15 10.68 15 10 15 C5 9.52380952 5 9.52380952 5 7 C4.34 7 3.68 7 3 7 C3 9.64 3 12.28 3 15 C2.01 15 1.02 15 0 15 C0 10.05 0 5.1 0 0 Z " fill="#CEE7FD" transform="translate(344,271)"/>
<path d="M0 0 C0.99 0 1.98 0 3 0 C3 1.98 3 3.96 3 6 C4.98 6 6.96 6 9 6 C9 4.02 9 2.04 9 0 C9.99 0 10.98 0 12 0 C12 4.95 12 9.9 12 15 C11.01 15 10.02 15 9 15 C9 12.69 9 10.38 9 8 C7.02 8 5.04 8 3 8 C3 10.31 3 12.62 3 15 C2.01 15 1.02 15 0 15 C0 10.05 0 5.1 0 0 Z " fill="#D6EBFD" transform="translate(360,271)"/>
<path d="M0 0 C4.02222388 2.01111194 5.48314253 3.40448933 8 7 C8 7.66 8 8.32 8 9 C8.66 9 9.32 9 10 9 C10 6.03 10 3.06 10 0 C10.66 0 11.32 0 12 0 C12 4.95 12 9.9 12 15 C7.46213776 12.73106888 6.05321843 10.90133466 3 7 C2.67 9.64 2.34 12.28 2 15 C1.34 15 0.68 15 0 15 C0 10.05 0 5.1 0 0 Z " fill="#E4F1FD" transform="translate(241,271)"/>
<path d="M0 0 C1.32 0 2.64 0 4 0 C4.67528223 1.57967807 5.33989694 3.16391903 6 4.75 C6.37125 5.63171875 6.7425 6.5134375 7.125 7.421875 C8 10 8 10 8 14 C7.01 14 6.02 14 5 14 C4.67 12.68 4.34 11.36 4 10 C2.35 10 0.7 10 -1 10 C-1.33 11.32 -1.66 12.64 -2 14 C-2.99 13.67 -3.98 13.34 -5 13 C-3.35 8.71 -1.7 4.42 0 0 Z " fill="#DAEDFD" transform="translate(272,272)"/>
<path d="M0 0 C0.99 0 1.98 0 3 0 C3.08142927 1.7492214 3.13938541 3.49954542 3.1875 5.25 C3.22230469 6.22453125 3.25710938 7.1990625 3.29296875 8.203125 C2.95487784 11.43076623 2.31417252 12.74922946 0 15 C-3.5625 15.375 -3.5625 15.375 -7 15 C-9 13 -9 13 -9.1953125 10.1796875 C-9.17210937 9.08914063 -9.14890625 7.99859375 -9.125 6.875 C-9.10695313 5.77929688 -9.08890625 4.68359375 -9.0703125 3.5546875 C-9.04710937 2.71164062 -9.02390625 1.86859375 -9 1 C-8.01 1 -7.02 1 -6 1 C-5.67 4.63 -5.34 8.26 -5 12 C-3.68 12 -2.36 12 -1 12 C-0.67 8.04 -0.34 4.08 0 0 Z " fill="#D9EDFD" transform="translate(307,271)"/>
<path d="M0 0 C2.97 0 5.94 0 9 0 C9 0.99 9 1.98 9 3 C7.02 3 5.04 3 3 3 C3 3.99 3 4.98 3 6 C4.65 6 6.3 6 8 6 C8 6.99 8 7.98 8 9 C6.35 9 4.7 9 3 9 C3 10.32 3 11.64 3 13 C4.98 13 6.96 13 9 13 C9 13.66 9 14.32 9 15 C6.03 15 3.06 15 0 15 C0 10.05 0 5.1 0 0 Z " fill="#DAEDFD" transform="translate(203,271)"/>
<path d="M0 0 C4 1 4 1 5.484375 3.43359375 C5.90203125 4.42488281 6.3196875 5.41617187 6.75 6.4375 C7.39195312 7.92056641 7.39195312 7.92056641 8.046875 9.43359375 C9 12 9 12 9 14 C7.68 13.67 6.36 13.34 5 13 C4.67 11.68 4.34 10.36 4 9 C2.35 9 0.7 9 -1 9 C-1.33 10.65 -1.66 12.3 -2 14 C-2.99 13.67 -3.98 13.34 -5 13 C-3.35 8.71 -1.7 4.42 0 0 Z " fill="#DCEEFD" transform="translate(334,272)"/>
<path d="M0 0 C0.99 0 1.98 0 3 0 C3.83739781 2.1234016 4.66980283 4.2487728 5.5 6.375 C5.9640625 7.55835938 6.428125 8.74171875 6.90625 9.9609375 C8 13 8 13 8 15 C6.68 15 5.36 15 4 15 C3.67 13.68 3.34 12.36 3 11 C1.68 11 0.36 11 -1 11 C-1.66 12.32 -2.32 13.64 -3 15 C-3.66 15 -4.32 15 -5 15 C-4.54705135 13.24859857 -4.08741252 11.49892656 -3.625 9.75 C-3.36976563 8.77546875 -3.11453125 7.8009375 -2.8515625 6.796875 C-2.10401491 4.34162697 -1.22876183 2.24382595 0 0 Z " fill="#DEEEFD" transform="translate(231,271)"/>
<path d="M0 0 C3.96 0 7.92 0 12 0 C12 0.99 12 1.98 12 3 C10.68 3 9.36 3 8 3 C8 6.96 8 10.92 8 15 C6.68 15 5.36 15 4 15 C4 11.04 4 7.08 4 3 C2.68 3 1.36 3 0 3 C0 2.01 0 1.02 0 0 Z " fill="#CAE6FC" transform="translate(214,271)"/>
<path d="M0 0 C4.75 0.75 4.75 0.75 7 3 C6.42307692 9.57692308 6.42307692 9.57692308 5 11 C2.5625 11.1875 2.5625 11.1875 0 11 C-2 9 -2 9 -2.25 6.0625 C-2 3 -2 3 0 0 Z " fill="#65B7FB" transform="translate(396,273)"/>
<path d="M0 0 C3.96 0 7.92 0 12 0 C12 2.31 12 4.62 12 7 C10.37581255 7.08090971 8.75048255 7.13914995 7.125 7.1875 C6.22007812 7.22230469 5.31515625 7.25710938 4.3828125 7.29296875 C3.20332031 7.14794922 3.20332031 7.14794922 2 7 C0 4 0 4 0 0 Z " fill="#5EB4FB" transform="translate(165,257)"/>
<path d="M0 0 C2.64 0 5.28 0 8 0 C8.33 0.99 8.66 1.98 9 3 C7.02 3 5.04 3 3 3 C3 3.99 3 4.98 3 6 C4.65 6 6.3 6 8 6 C8 6.99 8 7.98 8 9 C6.35 9 4.7 9 3 9 C3 10.98 3 12.96 3 15 C2.01 15 1.02 15 0 15 C0 10.05 0 5.1 0 0 Z " fill="#D4EAFC" transform="translate(320,271)"/>
<path d="M0 0 C4.55555556 0.55555556 4.55555556 0.55555556 6 2 C6.1875 5.4375 6.1875 5.4375 6 9 C5.34 9.66 4.68 10.32 4 11 C-0.55555556 10.44444444 -0.55555556 10.44444444 -2 9 C-2.1875 5.5625 -2.1875 5.5625 -2 2 C-1.34 1.34 -0.68 0.68 0 0 Z " fill="#5EB2FA" transform="translate(380,273)"/>
<path d="M0 0 C1.875 0.25 1.875 0.25 4 1 C5.25 3.0625 5.25 3.0625 6 5 C6.433125 4.175 6.86625 3.35 7.3125 2.5 C7.869375 1.675 8.42625 0.85 9 0 C9.99 0 10.98 0 12 0 C10.125 5.875 10.125 5.875 9 7 C8.76924918 8.34747084 8.58846937 9.70377565 8.4375 11.0625 C8.293125 12.361875 8.14875 13.66125 8 15 C7.01 15 6.02 15 5 15 C4.87625 13.948125 4.7525 12.89625 4.625 11.8125 C4.08859218 8.54041229 3.36119965 5.99463924 2 3 C1.34 3 0.68 3 0 3 C0 2.01 0 1.02 0 0 Z " fill="#D7EBFD" transform="translate(255,271)"/>
<path d="M0 0 C18.15 0 36.3 0 55 0 C54.34 1.98 53.68 3.96 53 6 C52.67 6 52.34 6 52 6 C52 4.35 52 2.7 52 1 C34.84 1 17.68 1 0 1 C0 0.67 0 0.34 0 0 Z " fill="#64B4FA" transform="translate(503,258)"/>
<path d="M0 0 C1.65 0 3.3 0 5 0 C6 1 6 1 6.1875 4.4375 C6 8 6 8 4 10 C2.68 10 1.36 10 0 10 C0 6.7 0 3.4 0 0 Z " fill="#66B6FA" transform="translate(411,274)"/>
<path d="M0 0 C0.928125 0.2784375 0.928125 0.2784375 1.875 0.5625 C4.04160178 1.23686176 4.04160178 1.23686176 6 0 C6 4.95 6 9.9 6 15 C5.67 13.68 5.34 12.36 5 11 C4.34 11 3.68 11 3 11 C2.67 12.32 2.34 13.64 2 15 C2 10.38 2 5.76 2 1 C1.34 0.67 0.68 0.34 0 0 Z " fill="#70BBFB" transform="translate(354,271)"/>
<path d="M0 0 C2.64 0 5.28 0 8 0 C8 0.33 8 0.66 8 1 C5.69 1 3.38 1 1 1 C1 5.29 1 9.58 1 14 C4.67296933 12.8175121 4.67296933 12.8175121 8 11 C9.05749557 7.91630113 9.05749557 7.91630113 9 5 C9.33 5 9.66 5 10 5 C10 6.98 10 8.96 10 11 C10.66 11.33 11.32 11.66 12 12 C10.09598862 13.90401138 8.66574314 14.93520439 5.953125 15.19921875 C3.96766727 15.1886578 1.9830086 15.09915043 0 15 C0 10.05 0 5.1 0 0 Z " fill="#C4E3FC" transform="translate(408,271)"/>
<path d="M0 0 C2.97 0 5.94 0 9 0 C8.34 1.98 7.68 3.96 7 6 C4.69 6 2.38 6 0 6 C0 4.02 0 2.04 0 0 Z " fill="#5DB3FB" transform="translate(429,257)"/>
<path d="M0 0 C0.33 0 0.66 0 1 0 C1.144375 1.134375 1.28875 2.26875 1.4375 3.4375 C1.61171478 6.80777201 1.61171478 6.80777201 3 8 C5.41583753 8.33374277 5.41583753 8.33374277 8 8 C9.81476003 6.60414215 9.81476003 6.60414215 11 5 C10.125 9.875 10.125 9.875 9 11 C2.83301344 11.45681382 2.83301344 11.45681382 0.0625 9.9375 C-1.57183566 6.95724086 -1.24622562 4.32404589 -1 1 C-0.67 0.67 -0.34 0.34 0 0 Z " fill="#E2F2FD" transform="translate(393,275)"/>
<path d="M0 0 C0.66 0 1.32 0 2 0 C2 4.62 2 9.24 2 14 C1.34 14 0.68 14 0 14 C-2.29648649 11.4385343 -3 10.52032428 -3 7 C-2.34 7 -1.68 7 -1 7 C-0.67 4.69 -0.34 2.38 0 0 Z " fill="#F1F8FE" transform="translate(354,272)"/>
<path d="M0 0 C2.31 0 4.62 0 7 0 C7 1.98 7 3.96 7 6 C4.625 6.1875 4.625 6.1875 2 6 C0 3 0 3 0 0 Z " fill="#67B6FA" transform="translate(170,268)"/>
<path d="M0 0 C0.66 0 1.32 0 2 0 C2 4.62 2 9.24 2 14 C0.68 13.34 -0.64 12.68 -2 12 C-2 11.01 -2 10.02 -2 9 C-1.34 9 -0.68 9 0 9 C0 6.03 0 3.06 0 0 Z " fill="#F1F8FE" transform="translate(197,272)"/>
<path d="M0 0 C0.66 0 1.32 0 2 0 C2 1.98 2 3.96 2 6 C3.98 6 5.96 6 8 6 C8 6.33 8 6.66 8 7 C6.02 7 4.04 7 2 7 C2 9.31 2 11.62 2 14 C1.34 14 0.68 14 0 14 C0 9.38 0 4.76 0 0 Z " fill="#F2F8FD" transform="translate(283,272)"/>
<path d="M0 0 C3 3.625 3 3.625 3 7 C-1.455 7.495 -1.455 7.495 -6 8 C-5.34 7.67 -4.68 7.34 -4 7 C-3.29848848 5.6846659 -2.63474075 4.34882408 -2 3 C-1.34 2.01 -0.68 1.02 0 0 Z " fill="#74BCFB" transform="translate(334,335)"/>
<path d="M0 0 C3 3.75 3 3.75 3 6 C-1.4378561 7.11165232 -5.76956386 7.11527763 -10.3125 7.0625 C-11.05306641 7.05798828 -11.79363281 7.05347656 -12.55664062 7.04882812 C-14.37112899 7.03712175 -16.18557534 7.01918898 -18 7 C-18 6.67 -18 6.34 -18 6 C-12.06 5.67 -6.12 5.34 0 5 C0 3.35 0 1.7 0 0 Z " fill="#ACD7FA" transform="translate(160,259)"/>
<path d="M0 0 C0.99 0 1.98 0 3 0 C3 3.63 3 7.26 3 11 C2.34 10.34 1.68 9.68 1 9 C-0.98 9.99 -0.98 9.99 -3 11 C-2.505 10.29875 -2.01 9.5975 -1.5 8.875 C0.1936681 5.62880281 0.25162315 3.60659844 0 0 Z " fill="#69B6FA" transform="translate(405,275)"/>
<path d="M0 0 C2.475 0.495 2.475 0.495 5 1 C5.33 3.31 5.66 5.62 6 8 C1.125 3.375 1.125 3.375 0 0 Z " fill="#78BCF9" transform="translate(311,349)"/>
<path d="M0 0 C2.6855594 2.6855594 3.06049974 5.37621328 4 9 C2.68 8.67 1.36 8.34 0 8 C-0.98120464 4.94736336 -0.98120464 3.05263664 0 0 Z " fill="#CBE6FC" transform="translate(339,277)"/>
<path d="M0 0 C0.33 0 0.66 0 1 0 C1 4.29 1 8.58 1 13 C0.67 13 0.34 13 0 13 C-0.33 11.35 -0.66 9.7 -1 8 C-3.97 7.505 -3.97 7.505 -7 7 C-7 6.67 -7 6.34 -7 6 C-5.02 5.67 -3.04 5.34 -1 5 C-0.67 3.35 -0.34 1.7 0 0 Z " fill="#F8FBFE" transform="translate(370,272)"/>
<path d="M0 0 C1.65 1.32 3.3 2.64 5 4 C4.67 4.66 4.34 5.32 4 6 C3.34 6 2.68 6 2 6 C1.34 6.99 0.68 7.98 0 9 C0 6.03 0 3.06 0 0 Z " fill="#78BFFC" transform="translate(243,277)"/>
<path d="M0 0 C0.99 0 1.98 0 3 0 C3.33 2.64 3.66 5.28 4 8 C3.34 7.67 2.68 7.34 2 7 C2 6.34 2 5.68 2 5 C1.34 5 0.68 5 0 5 C0 3.35 0 1.7 0 0 Z " fill="#E3F1FD" transform="translate(231,271)"/>
<path d="M0 0 C3.96 0 7.92 0 12 0 C12 0.33 12 0.66 12 1 C11.37351563 1.02578125 10.74703125 1.0515625 10.1015625 1.078125 C9.28429687 1.13484375 8.46703125 1.1915625 7.625 1.25 C6.81289062 1.29640625 6.00078125 1.3428125 5.1640625 1.390625 C2.81161073 1.7922092 2.81161073 1.7922092 1.7109375 4.046875 C1.47632813 4.69140625 1.24171875 5.3359375 1 6 C0.67 4.02 0.34 2.04 0 0 Z " fill="#70BCFB" transform="translate(165,257)"/>
<path d="M0 0 C0.33 0.66 0.66 1.32 1 2 C2.98 2 4.96 2 7 2 C7 2.33 7 2.66 7 3 C5.35 3 3.7 3 2 3 C1.67 4.32 1.34 5.64 1 7 C0.01 6.67 -0.98 6.34 -2 6 C-1.34 4.02 -0.68 2.04 0 0 Z " fill="#C9E5FC" transform="translate(269,279)"/>
<path d="M0 0 C1.32 0.33 2.64 0.66 4 1 C2.35 2.98 0.7 4.96 -1 7 C-1.33 6.34 -1.66 5.68 -2 5 C-1.0625 2.375 -1.0625 2.375 0 0 Z " fill="#7ABEFA" transform="translate(286,349)"/>
<path d="M0 0 C0.33 0 0.66 0 1 0 C1.33 2.97 1.66 5.94 2 9 C1.01 8.67 0.02 8.34 -1 8 C-1.04241723 5.66705225 -1.04092937 3.33297433 -1 1 C-0.67 0.67 -0.34 0.34 0 0 Z " fill="#F7FBFE" transform="translate(393,275)"/>
<path d="M0 0 C1.32 0 2.64 0 4 0 C3.67 1.65 3.34 3.3 3 5 C2.01 5 1.02 5 0 5 C0 3.35 0 1.7 0 0 Z " fill="#69B8FB" transform="translate(429,268)"/>
<path d="M0 0 C0.33 0.66 0.66 1.32 1 2 C1.66 2 2.32 2 3 2 C3 3.32 3 4.64 3 6 C2.01 6 1.02 6 0 6 C-0.38218767 4.34385343 -0.71395102 2.67542976 -1 1 C-0.67 0.67 -0.34 0.34 0 0 Z " fill="#C2E1FC" transform="translate(230,274)"/>
<path d="M0 0 C3.63 0 7.26 0 11 0 C11 0.33 11 0.66 11 1 C10.07767578 1.07347656 10.07767578 1.07347656 9.13671875 1.1484375 C8.32847656 1.22320312 7.52023437 1.29796875 6.6875 1.375 C5.48673828 1.47941406 5.48673828 1.47941406 4.26171875 1.5859375 C1.72775559 1.89564426 1.72775559 1.89564426 -1 4 C-0.67 2.68 -0.34 1.36 0 0 Z " fill="#67B8FB" transform="translate(443,257)"/>
</svg>
