<svg xmlns="http://www.w3.org/2000/svg" viewBox="0 0 64 64" width="64" height="64">
  <rect x="20" y="38" width="24" height="14" rx="2" fill="#8B6914"/>
  <rect x="24" y="30" width="16" height="10" rx="1" fill="#A07820"/>
  <rect x="28" y="24" width="8" height="8" rx="1" fill="#C09030"/>
  <line x1="32" y1="10" x2="32" y2="24" stroke="#6B4F10" stroke-width="2"/>
  <line x1="32" y1="14" x2="44" y2="18" stroke="#6B4F10" stroke-width="1.5"/>
  <ellipse cx="46" cy="19" rx="3" ry="2" fill="#1E88E5" opacity="0.7"/>
  <path d="M14 46 Q16 44 18 46 Q20 48 18 50 L16 52 L14 50 Z" fill="#1E88E5"/>
  <path d="M8 50 Q10 48 12 50 Q14 52 12 54 L10 56 L8 54 Z" fill="#1565C0"/>
  <rect x="8" y="52" width="48" height="6" rx="2" fill="#1565C0" opacity="0.5"/>
</svg>
